<?xml version="1.0" encoding="UTF-8"?>
<svg width="68px" height="69px" viewBox="0 0 68 69" version="1.1" xmlns="http://www.w3.org/2000/svg" xmlns:xlink="http://www.w3.org/1999/xlink">
    <title>Group 10</title>
    <defs>
        <polygon id="path-1" points="2.4e-05 0.055464 31.47216 0.055464 31.47216 40.08 2.4e-05 40.08"></polygon>
        <polygon id="path-3" points="0 0.01512 31.472136 0.01512 31.472136 37.92 0 37.92"></polygon>
        <polygon id="path-5" points="0 0.01512 31.472136 0.01512 31.472136 8.29488 0 8.29488"></polygon>
        <polygon id="path-7" points="0 40.74456 32.19216 40.74456 32.19216 0 0 0"></polygon>
    </defs>
    <g id="Presencial" stroke="none" stroke-width="1" fill="none" fill-rule="evenodd">
        <g id="step-4" transform="translate(-173.000000, -297.000000)">
            <g id="Group-2" transform="translate(48.000000, 297.800000)">
                <g id="Group-10" transform="translate(125.000000, 0.000000)">
                    <circle id="Oval" fill="#38B3B6" opacity="0.2" cx="33.8" cy="34" r="28.8"></circle>
                    <circle id="Oval-Copy" stroke="#38B3B6" stroke-width="0.6" opacity="0.6" cx="34" cy="34" r="33.7"></circle>
                    <g id="Group-30" transform="translate(18.000000, 13.300000)">
                        <g id="Group-6" transform="translate(0.720000, 0.664560)">
                            <mask id="mask-2" fill="white">
                                <use xlink:href="#path-1"></use>
                            </mask>
                            <g id="Clip-5"></g>
                            <path d="M5.644344,5.279064 C5.716344,5.851944 6.199224,6.296424 6.791544,6.296424 C7.383864,6.296424 7.866984,5.851944 7.939464,5.279304 C8.275224,5.589144 8.487144,6.031944 8.487144,6.524664 C8.487144,7.461864 7.728024,8.220024 6.792264,8.220024 C5.855064,8.220024 5.096184,7.461864 5.096184,6.524664 C5.096184,6.031704 5.308104,5.589144 5.644344,5.279064 M24.062904,5.279544 C24.135144,5.852184 24.618264,6.296424 25.210584,6.296424 C25.802904,6.296424 26.285784,5.851704 26.357784,5.278584 C26.694264,5.588664 26.906184,6.031464 26.906184,6.524664 C26.906184,7.461864 26.147784,8.220024 25.210584,8.220024 C24.274584,8.220024 23.514984,7.461864 23.514984,6.524664 C23.514984,6.032184 23.726904,5.589624 24.062904,5.279544 M28.523064,2.175144 L26.372424,2.175144 L26.372424,1.218024 C26.372424,0.576024 25.852584,0.055464 25.210584,0.055464 C24.568344,0.055464 24.048024,0.576024 24.048024,1.218024 L24.048024,2.175144 L7.954104,2.175144 L7.954104,1.218024 C7.954104,0.576024 7.433784,0.055464 6.791544,0.055464 C6.149304,0.055464 5.629704,0.576024 5.629704,1.218024 L5.629704,2.175144 L2.947944,2.175144 C1.320024,2.175144 2.4e-05,3.496104 2.4e-05,5.124024 L2.4e-05,10.275144 L2.4e-05,10.454904 L2.4e-05,13.197864 L2.4e-05,37.130664 C2.4e-05,38.759064 1.320024,40.080024 2.947944,40.080024 L28.523064,40.080024 C30.151944,40.080024 31.472184,38.759064 31.472184,37.130664 L31.472184,13.197864 L31.472184,10.454904 L31.472184,10.275144 L31.472184,5.124024 C31.472184,3.496104 30.151944,2.175144 28.523064,2.175144" id="Fill-4" fill="#E2E2E2" mask="url(#mask-2)"></path>
                        </g>
                        <g id="Group-9" transform="translate(0.000000, 2.104560)">
                            <mask id="mask-4" fill="white">
                                <use xlink:href="#path-3"></use>
                            </mask>
                            <g id="Clip-8"></g>
                            <path d="M25.210536,6.06 C24.274776,6.06 23.515176,5.30184 23.515176,4.36464 C23.515176,3.42888 24.274776,2.66904 25.210536,2.66904 C26.147736,2.66904 26.906136,3.42888 26.906136,4.36464 C26.906136,5.30184 26.147736,6.06 25.210536,6.06 M6.792216,6.06 C5.855256,6.06 5.096136,5.30184 5.096136,4.36464 C5.096136,3.42888 5.855256,2.66904 6.792216,2.66904 C7.727976,2.66904 8.487096,3.42888 8.487096,4.36464 C8.487096,5.30184 7.727976,6.06 6.792216,6.06 M28.523016,0.01512 L2.947896,0.01512 C1.319976,0.01512 -2.4e-05,1.33608 -2.4e-05,2.96424 L-2.4e-05,34.97064 C-2.4e-05,36.59904 1.319976,37.92 2.947896,37.92 L28.523016,37.92 C30.151896,37.92 31.472136,36.59904 31.472136,34.97064 L31.472136,2.96424 C31.472136,1.33608 30.151896,0.01512 28.523016,0.01512" id="Fill-7" fill="#FEFEFE" mask="url(#mask-4)"></path>
                        </g>
                        <g id="Group-12" transform="translate(0.000000, 2.104560)">
                            <mask id="mask-6" fill="white">
                                <use xlink:href="#path-5"></use>
                            </mask>
                            <g id="Clip-11"></g>
                            <path d="M25.210536,6.06 C24.274776,6.06 23.515176,5.30184 23.515176,4.36464 C23.515176,3.42888 24.274776,2.66904 25.210536,2.66904 C26.147736,2.66904 26.906136,3.42888 26.906136,4.36464 C26.906136,5.30184 26.147736,6.06 25.210536,6.06 M6.792216,6.06 C5.855256,6.06 5.096136,5.30184 5.096136,4.36464 C5.096136,3.42888 5.855256,2.66904 6.792216,2.66904 C7.727976,2.66904 8.487096,3.42888 8.487096,4.36464 C8.487096,5.30184 7.727976,6.06 6.792216,6.06 M28.523016,0.01512 L2.947896,0.01512 C1.319976,0.01512 -2.4e-05,1.33608 -2.4e-05,2.96424 L-2.4e-05,8.29488 L31.472136,8.29488 L31.472136,2.96424 C31.472136,1.33608 30.151896,0.01512 28.523016,0.01512" id="Fill-10" fill="#2D82B7" mask="url(#mask-6)"></path>
                        </g>
                        <mask id="mask-8" fill="white">
                            <use xlink:href="#path-7"></use>
                        </mask>
                        <g id="Clip-14"></g>
                        <polygon id="Fill-13" fill="#C2E7FE" mask="url(#mask-8)" points="0 13.1424 31.47216 13.1424 31.47216 10.21968 0 10.21968"></polygon>
                        <path d="M6.792192,8.16456 C5.855232,8.16456 5.096352,7.4064 5.096352,6.4692 C5.096352,5.53344 5.855232,4.7736 6.792192,4.7736 C7.727952,4.7736 8.487072,5.53344 8.487072,6.4692 C8.487072,7.4064 7.727952,8.16456 6.792192,8.16456 M6.792192,4.02744 C5.442192,4.02744 4.348752,5.12136 4.348752,6.4692 C4.348752,7.8192 5.442192,8.91192 6.792192,8.91192 C8.140752,8.91192 9.233472,7.8192 9.233472,6.4692 C9.233472,5.12136 8.140752,4.02744 6.792192,4.02744" id="Fill-15" fill="#77BFEC" mask="url(#mask-8)"></path>
                        <path d="M25.210536,8.16456 C24.274776,8.16456 23.515176,7.4064 23.515176,6.4692 C23.515176,5.53344 24.274776,4.7736 25.210536,4.7736 C26.147736,4.7736 26.906136,5.53344 26.906136,6.4692 C26.906136,7.4064 26.147736,8.16456 25.210536,8.16456 M25.211496,4.02744 C23.860776,4.02744 22.768056,5.12136 22.768056,6.4692 C22.768056,7.8192 23.860776,8.91192 25.211496,8.91192 C26.559816,8.91192 27.652296,7.8192 27.652296,6.4692 C27.652296,5.12136 26.559816,4.02744 25.211496,4.02744" id="Fill-16" fill="#77BFEC" mask="url(#mask-8)"></path>
                        <path d="M7.953984,5.078304 C7.953984,5.720544 7.433664,6.240864 6.791424,6.240864 C6.149184,6.240864 5.629584,5.720544 5.629584,5.078304 L5.629584,1.162704 C5.629584,0.520464 6.149184,0.000144 6.791424,0.000144 C7.433664,0.000144 7.953984,0.520464 7.953984,1.162704 L7.953984,5.078304 Z" id="Fill-17" fill="#827371" mask="url(#mask-8)"></path>
                        <path d="M26.372352,5.078304 C26.372352,5.720544 25.852512,6.240864 25.210512,6.240864 C24.568272,6.240864 24.047952,5.720544 24.047952,5.078304 L24.047952,1.162704 C24.047952,0.520464 24.568272,0.000144 25.210512,0.000144 C25.852512,0.000144 26.372352,0.520464 26.372352,1.162704 L26.372352,5.078304 Z" id="Fill-18" fill="#827371" mask="url(#mask-8)"></path>
                        <polygon id="Fill-19" fill="#F0F0F0" mask="url(#mask-8)" points="10.49112 21.552 14.75112 21.552 14.75112 17.292 10.49112 17.292"></polygon>
                        <polygon id="Fill-20" fill="#F0F0F0" mask="url(#mask-8)" points="16.7208 21.55224 20.98104 21.55224 20.98104 17.29224 16.7208 17.29224"></polygon>
                        <polygon id="Fill-21" fill="#F0F0F0" mask="url(#mask-8)" points="22.95048 21.55224 27.21072 21.55224 27.21072 17.29224 22.95048 17.29224"></polygon>
                        <polygon id="Fill-22" fill="#F0F0F0" mask="url(#mask-8)" points="4.26144 28.44216 8.52168 28.44216 8.52168 24.18216 4.26144 24.18216"></polygon>
                        <polygon id="Fill-23" fill="#F0F0F0" mask="url(#mask-8)" points="10.49112 28.44216 14.75112 28.44216 14.75112 24.18216 10.49112 24.18216"></polygon>
                        <polygon id="Fill-24" fill="#FFBA52" mask="url(#mask-8)" points="16.7208 28.44216 20.98104 28.44216 20.98104 24.18216 16.7208 24.18216"></polygon>
                        <polygon id="Fill-25" fill="#F0F0F0" mask="url(#mask-8)" points="22.95048 28.44216 27.21072 28.44216 27.21072 24.18216 22.95048 24.18216"></polygon>
                        <polygon id="Fill-26" fill="#F0F0F0" mask="url(#mask-8)" points="4.26144 35.33232 8.52168 35.33232 8.52168 31.07232 4.26144 31.07232"></polygon>
                        <polygon id="Fill-27" fill="#F0F0F0" mask="url(#mask-8)" points="10.49112 35.33232 14.75112 35.33232 14.75112 31.07232 10.49112 31.07232"></polygon>
                        <polygon id="Fill-28" fill="#F0F0F0" mask="url(#mask-8)" points="16.7208 35.33232 20.98104 35.33232 20.98104 31.07232 16.7208 31.07232"></polygon>
                        <polygon id="Fill-29" fill="#F0F0F0" mask="url(#mask-8)" points="22.95048 35.33232 27.21072 35.33232 27.21072 31.07232 22.95048 31.07232"></polygon>
                    </g>
                </g>
            </g>
        </g>
    </g>
</svg>