<?xml version="1.0" encoding="utf-8"?>
<!-- Generator: Adobe Illustrator 24.0.3, SVG Export Plug-In . SVG Version: 6.00 Build 0)  -->
<svg version="1.1" id="Capa_1" xmlns="http://www.w3.org/2000/svg" xmlns:xlink="http://www.w3.org/1999/xlink" x="0px" y="0px"
	 viewBox="0 0 105.8 118" style="enable-background:new 0 0 105.8 118;" xml:space="preserve">
<style type="text/css">
	.st0{fill:#495057;}
</style>
<path class="st0" d="M56.2,61c0.7-0.7,1-1.5,1-2.5c0-0.9-0.4-1.8-1-2.5L24,23.8c-0.7-0.7-1.6-1-2.5-1c-0.9,0-1.8,0.3-2.5,1
	c-1.4,1.4-1.4,3.6,0,4.9l29.7,29.7L19,88.3c-0.7,0.7-1,1.5-1,2.5s0.4,1.8,1,2.5c1.3,1.3,3.6,1.3,4.9,0L56.2,61z"/>
<path class="st0" d="M50,56c-0.7,0.7-1,1.5-1,2.5c0,0.9,0.4,1.8,1,2.5l32.2,32.2c0.7,0.7,1.6,1,2.5,1c0.9,0,1.8-0.3,2.5-1
	c1.4-1.4,1.4-3.6,0-4.9L57.5,58.5l29.7-29.7c0.7-0.7,1-1.5,1-2.5s-0.4-1.8-1-2.5c-1.3-1.3-3.6-1.3-4.9,0L50,56z"/>
</svg>
