<?xml version="1.0" encoding="utf-8"?>
<!-- Generator: Adobe Illustrator 24.0.3, SVG Export Plug-In . SVG Version: 6.00 Build 0)  -->
<svg version="1.1" id="Capa_1" xmlns="http://www.w3.org/2000/svg" xmlns:xlink="http://www.w3.org/1999/xlink" x="0px" y="0px"
	 viewBox="0 0 107.6 117.2" style="enable-background:new 0 0 107.6 117.2;" xml:space="preserve">
<style type="text/css">
	.st0{fill:#AACDE0;}
	.st1{fill:#19ABE5;}
	.st2{fill:#FFCF75;}
	.st3{fill:#FFFFFF;}
	.st4{fill:#FFDA8F;}
	.st5{fill:#333333;}
	.st6{fill:#DFF2FE;}
</style>
<circle class="st0" cx="53.8" cy="63.4" r="53.8"/>
<g>
	<rect x="43.6" y="42.8" class="st1" width="3.4" height="2.6"/>
	<rect x="63.6" y="42.8" class="st1" width="3.4" height="2.6"/>
	<polygon class="st2" points="55.3,31.3 55.3,31.3 55.3,31.3 55.3,31.3 55.3,31.3 44.6,33.1 44.6,53.7 65.9,53.7 65.9,33.1 	"/>
	<path class="st1" d="M91.3,82c0.3-0.3,0.6-0.6,0.8-0.9V69.3c0-3.4-0.7-6.8-1.9-10.1l0,0c-0.5-1.4-1.5-2.6-2.8-3.5
		c-0.5-0.4-1.1-0.6-1.7-0.9l-19.8-7.2l-7.1,2.6c-2.2,1.5-5.3,2-7,0l-7.1-2.6l-19.8,7.2c-0.6,0.2-1.2,0.5-1.7,0.9
		c-1.3,0.9-2.3,2.1-2.8,3.5c-1.3,3.2-1.9,6.6-1.9,10.1v11.9c0.3,0.3,0.6,0.6,0.8,0.9c0.3,0.3,0.5,0.6,0.8,0.8c0.3,0.3,0.7,0.6,1,1
		c0.2,0.2,0.5,0.5,0.7,0.7c0.4,0.4,0.8,0.7,1.2,1.1c0.2,0.2,0.4,0.3,0.6,0.5c0.5,0.4,0.9,0.8,1.4,1.1c0.1,0.1,0.3,0.2,0.4,0.3
		c0.5,0.4,1.1,0.8,1.6,1.2c0.1,0.1,0.2,0.1,0.3,0.2c0.6,0.4,1.2,0.8,1.8,1.2c0.1,0,0.1,0.1,0.2,0.1c0.7,0.4,1.3,0.8,2,1.2
		c0,0,0,0,0.1,0c6.3,3.4,13.4,5.6,21,6l0,0c0.9,0.1,1.9,0.1,2.9,0.1s1.9,0,2.9-0.1l0,0c7.6-0.4,14.7-2.5,21-6c0,0,0,0,0,0
		c0.7-0.4,1.4-0.8,2-1.2c0,0,0.1-0.1,0.1-0.1c0.6-0.4,1.2-0.8,1.9-1.2c0.1-0.1,0.2-0.1,0.3-0.2c0.6-0.4,1.1-0.8,1.6-1.2
		c0.1-0.1,0.3-0.2,0.4-0.3c0.5-0.4,1-0.8,1.5-1.1c0.2-0.2,0.4-0.3,0.6-0.5c0.4-0.4,0.8-0.7,1.2-1.1c0.2-0.2,0.5-0.5,0.7-0.7
		c0.3-0.3,0.7-0.6,1-1C90.8,82.6,91,82.3,91.3,82z"/>
	<path class="st3" d="M91.3,82c0.3-0.3,0.6-0.6,0.8-0.9V69.3c0-3.4-0.7-6.8-1.9-10.1l0,0c-0.5-1.4-1.5-2.6-2.8-3.5
		c-0.5-0.4-1.1-0.6-1.7-0.9L70,49.1l-4.3,46.6c-6.9,2.3-13.8,2.2-20.8,0l-4.4-46.6l-15.6,5.7c-0.6,0.2-1.2,0.5-1.7,0.9
		c-1.3,0.9-2.3,2.1-2.8,3.5c-1.3,3.2-1.9,6.6-1.9,10.1v11.9c0.3,0.3,0.6,0.6,0.8,0.9c0.3,0.3,0.5,0.6,0.8,0.8c0.3,0.3,0.7,0.6,1,1
		c0.2,0.2,0.5,0.5,0.7,0.7c0.4,0.4,0.8,0.7,1.2,1.1c0.2,0.2,0.4,0.3,0.6,0.5c0.5,0.4,0.9,0.8,1.4,1.1c0.1,0.1,0.3,0.2,0.4,0.3
		c0.5,0.4,1.1,0.8,1.6,1.2c0.1,0.1,0.2,0.1,0.3,0.2c0.6,0.4,1.2,0.8,1.8,1.2c0.1,0,0.1,0.1,0.2,0.1c0.7,0.4,1.3,0.8,2,1.2
		c0,0,0,0,0.1,0c6.3,3.4,13.4,5.6,21,6l0,0c0.9,0.1,1.9,0.1,2.9,0.1s1.9,0,2.9-0.1l0,0c7.6-0.4,14.7-2.5,21-6c0,0,0,0,0,0
		c0.7-0.4,1.4-0.8,2-1.2c0,0,0.1-0.1,0.1-0.1c0.6-0.4,1.2-0.8,1.9-1.2c0.1-0.1,0.2-0.1,0.3-0.2c0.6-0.4,1.1-0.8,1.6-1.2
		c0.1-0.1,0.3-0.2,0.4-0.3c0.5-0.4,1-0.8,1.5-1.1c0.2-0.2,0.4-0.3,0.6-0.5c0.4-0.4,0.8-0.7,1.2-1.1c0.2-0.2,0.5-0.5,0.7-0.7
		c0.3-0.3,0.7-0.6,1-1C90.8,82.6,91,82.3,91.3,82z"/>
	<path class="st4" d="M69.7,24.5C71.8,11.8,71.8,0,55.3,0v0c0,0,0,0,0,0c0,0,0,0,0,0v0C38.8,0,38.8,11.8,40.9,24.5
		c-2.1,0.8-1.4,5.3,1.5,6.6c0.6,4,6.5,12.8,12.9,12.8v0c0,0,0,0,0,0s0,0,0,0v0c6.3,0,12.2-8.7,12.9-12.8
		C71.1,29.9,71.7,25.3,69.7,24.5z"/>
	<path class="st5" d="M55.3,0L55.3,0C55.3,0,55.3,0,55.3,0C55.3,0,55.3,0,55.3,0L55.3,0C38.8,0,38.8,11.8,40.9,24.5l0.6,1.5
		c0.1,0.2,0.4,0.1,0.4-0.1c-0.2-2.7,1.1-10.1,1.6-13.2c0.2-0.9,0.9-1.5,1.8-1.5h20c0.9,0,1.6,0.6,1.8,1.5c0.6,3.2,1.8,10.6,1.6,13.2
		c0,0.2,0.3,0.3,0.4,0.1l0.6-1.5C71.8,11.8,71.8,0,55.3,0z"/>
	<path class="st6" d="M66.9,42.8c-2.8,2.4-0.5,2.5-9.7,7.7c-0.3,0.2-0.5,0.6-0.4,0.9l2.8,7.3c0.1,0.3,0.6,0.4,0.9,0.2l10.6-9.6
		c0.2-0.2,0.2-0.6,0-0.8C68.9,47,68.4,42.4,66.9,42.8z"/>
	<path class="st6" d="M43.6,42.8c2.8,2.4,0.5,2.5,9.7,7.7c0.3,0.2,0.5,0.6,0.4,0.9l-2.8,7.3c-0.1,0.3-0.6,0.4-0.9,0.2l-10.6-9.6
		c-0.2-0.2-0.2-0.6,0-0.8C41.6,47,42.1,42.4,43.6,42.8z"/>
</g>
</svg>
