<?xml version="1.0" encoding="UTF-8"?>
<svg width="93px" height="93px" viewBox="0 0 93 93" version="1.1" xmlns="http://www.w3.org/2000/svg" xmlns:xlink="http://www.w3.org/1999/xlink">
    <title>Group</title>
    <g id="Nuevos-cambios" stroke="none" stroke-width="1" fill="none" fill-rule="evenodd">
        <g id="tipo-de-cita1" transform="translate(-244.000000, -351.000000)">
            <g id="Group" transform="translate(244.000000, 351.000000)">
                <g id="Group-3">
                    <circle id="Oval" fill="#38B3B6" opacity="0.2" cx="46.0565217" cy="46.3434783" r="39.1695652"></circle>
                    <circle id="Oval-Copy" stroke="#38B3B6" stroke-width="0.55" opacity="0.6" cx="46.2" cy="46.2" r="45.925"></circle>
                </g>
                <g id="Group-10" transform="translate(33.000000, 25.000000)">
                    <polygon id="Fill-2" fill="#FF9900" points="17.5908096 34.5409344 21.6122256 36.5523984 13.5648576 40.5738144 5.5174896 36.5529024 9.5378976 34.5414384 7.2764496 33.4084464 0.9900576 36.5529024 13.5648576 42.8397984 26.1386496 36.5523984 19.8527616 33.4054224"></polygon>
                    <g id="Group-7">
                        <path d="M13.5657144,0 C6.1488504,0 0.1290744,6.019776 0.1290744,13.434624 C0.1290744,16.529688 1.2565224,19.298664 2.9151864,21.62412 L13.5657144,36.5526 L24.2147304,21.623112 C25.8759144,19.297656 26.9993304,16.519104 26.9993304,13.434624 C26.9993304,6.019776 20.9871144,0 13.5657144,0" id="Fill-3" fill="#2D82B7"></path>
                        <path d="M21.8787408,13.4345232 C21.8787408,18.0325152 18.1582128,21.7530432 13.5657648,21.7530432 C8.9763408,21.7530432 5.2507728,18.0325152 5.2507728,13.4345232 C5.2507728,8.8471152 8.9763408,5.1210432 13.5657648,5.1210432 C18.1582128,5.1210432 21.8787408,8.8471152 21.8787408,13.4345232" id="Fill-5" fill="#FFFFFF"></path>
                    </g>
                </g>
            </g>
        </g>
    </g>
</svg>