<?xml version="1.0" encoding="UTF-8"?>
<svg width="111px" height="98px" viewBox="0 0 111 98" version="1.1" xmlns="http://www.w3.org/2000/svg" xmlns:xlink="http://www.w3.org/1999/xlink">
    <title>Group 82</title>
    <g id="Presencial" stroke="none" stroke-width="1" fill="none" fill-rule="evenodd" stroke-linecap="round" stroke-linejoin="round">
        <g id="thanku-page" transform="translate(-152.000000, -102.000000)" stroke-width="1.18262025">
            <g id="Group-82" transform="translate(153.000000, 103.000000)">
                <line x1="54.2003456" y1="7.01621428" x2="54.2003456" y2="5.53024856" id="Stroke-1" stroke="#FF9900"></line>
                <line x1="54.2003456" y1="88.0367897" x2="54.2003456" y2="86.5508239" id="Stroke-2" stroke="#FF9900"></line>
                <line x1="14.3950537" y1="46.8214953" x2="12.909088" y2="46.8214953" id="Stroke-3" stroke="#2D82B7"></line>
                <line x1="100.455624" y1="46.8214953" x2="93.9296688" y2="46.8214953" id="Stroke-4" stroke="#38B3B6"></line>
                <line x1="26.0426224" y1="18.6637965" x2="24.991888" y2="17.613035" id="Stroke-5" stroke="#2D82B7"></line>
                <line x1="85.1489824" y1="77.7701402" x2="82.2820676" y2="74.9032255" id="Stroke-6" stroke="#38B3B6"></line>
                <line x1="26.0426224" y1="74.9032363" x2="20.1890712" y2="80.7568146" id="Stroke-7" stroke="#FF9900"></line>
                <line x1="89.2556292" y1="11.6902431" x2="82.2820892" y2="18.663783" id="Stroke-8" stroke="#FF9900"></line>
                <line x1="91.1967374" y1="62.1236526" x2="98.7756168" y2="65.2634756" id="Stroke-9" stroke="#FF9900"></line>
                <line x1="3.94909745" y1="26.0635555" x2="17.1279742" y2="31.4433558" id="Stroke-10" stroke="#FF9900"></line>
                <line x1="69.5024921" y1="9.7491375" x2="70.4367486" y2="7.49372525" id="Stroke-11" stroke="#2D82B7"></line>
                <line x1="37.8879874" y1="86.0732967" x2="38.8222169" y2="83.8178845" id="Stroke-12" stroke="#2D82B7"></line>
                <line x1="91.1967374" y1="31.4433666" x2="93.4521497" y2="30.5091372" id="Stroke-13" stroke="#2D82B7"></line>
                <line x1="12.9090826" y1="63.9568194" x2="17.1279688" y2="62.1236635" id="Stroke-14" stroke="#38B3B6"></line>
                <line x1="38.8222196" y1="9.7491375" x2="36.0557262" y2="3.29024686" id="Stroke-15" stroke="#1E3796"></line>
                <line x1="73.2023256" y1="92.7034389" x2="69.5024948" y2="83.8178926" id="Stroke-16" stroke="#38B3B6"></line>
                <g id="Group-81" transform="translate(0.000000, 0.003514)">
                    <path d="M21.8693056,33.0202225 C20.066722,37.245353 19.0690771,41.8961727 19.0690771,46.7800023 C19.0690771,66.1614858 34.7808697,81.8732784 54.1623531,81.8732784 C73.5438366,81.8732784 89.2556292,66.1614858 89.2556292,46.7800023 C89.2556292,27.3985189 73.5438366,11.6867263 54.1623531,11.6867263 C49.7943081,11.6867263 45.6126169,12.484772 41.7552205,13.9430035" id="Stroke-17" stroke="#38B3B6" opacity="0.2"></path>
                    <path d="M38.4378937,15.3982184 C34.941041,17.1537945 31.7781604,19.4766499 29.0700276,22.2460627 C26.7778257,24.5901107 24.8113783,27.2540743 23.2439401,30.1646987 C23.1000794,30.4318222 22.9595977,30.7010271 22.8225219,30.9722324" id="Stroke-19" stroke="#FFBA52" stroke-dasharray="0.3507313889265061,3.155933885574341"></path>
                    <path d="M83.2298884,59.0593687 C84.826223,55.2852017 85.7089848,51.1356779 85.7089848,46.7799861 C85.7089848,29.3572732 71.5850661,15.2333814 54.1623531,15.2333814 C36.7396402,15.2333814 22.6157214,29.3572732 22.6157214,46.7799861 C22.6157214,64.202699 36.7396402,78.3266178 54.1623531,78.3266178 C58.4804984,78.3266178 62.5959628,77.4590206 66.3440175,75.8886631" id="Stroke-21" stroke="#2D82B7"></path>
                    <path d="M69.3432884,74.4404276 C71.852714,73.0602355 74.1540795,71.3485042 76.1883215,69.3642161 C78.8248483,66.7924833 81.0127093,63.7628941 82.6235056,60.4039822" id="Stroke-23" stroke="#FFBA52" stroke-dasharray="0.3507313889265061,3.155933885574341"></path>
                    <path d="M23.0824037,13.7400551 C23.0824037,14.7194269 22.2884397,15.5133908 21.309068,15.5133908 C20.3296962,15.5133908 19.5357323,14.7194269 19.5357323,13.7400551 C19.5357323,12.7606833 20.3296962,11.9667194 21.309068,11.9667194 C22.2884397,11.9667194 23.0824037,12.7606833 23.0824037,13.7400551 Z" id="Stroke-25" stroke="#38B3B6"></path>
                    <path d="M96.3489746,7.11339458 C96.3489746,8.50515615 95.2207143,9.63338938 93.8289257,9.63338938 C92.4371912,9.63338938 91.308958,8.50515615 91.308958,7.11339458 C91.308958,5.721633 92.4371912,4.59339977 93.8289257,4.59339977 C95.2207143,4.59339977 96.3489746,5.721633 96.3489746,7.11339458 Z" id="Stroke-27" stroke="#2D82B7"></path>
                    <path d="M56.0290442,93.3532718 C56.0290442,94.3326436 55.2350532,95.1266075 54.2556815,95.1266075 C53.2763097,95.1266075 52.4823458,94.3326436 52.4823458,93.3532718 C52.4823458,92.373873 53.2763097,91.5799091 54.2556815,91.5799091 C55.2350532,91.5799091 56.0290442,92.373873 56.0290442,93.3532718 Z" id="Stroke-29" stroke="#2D82B7"></path>
                    <path d="M9.54909492,66.6599731 C9.54909492,68.0517076 8.42086168,69.1799679 7.02910011,69.1799679 C5.63733854,69.1799679 4.5091053,68.0517076 4.5091053,66.6599731 C4.5091053,65.2682115 5.63733854,64.1399512 7.02910011,64.1399512 C8.42086168,64.1399512 9.54909492,65.2682115 9.54909492,66.6599731 Z" id="Stroke-31" stroke="#2D82B7"></path>
                    <path d="M108.108948,67.9666373 C108.108948,69.4614964 106.897134,70.6733105 105.402275,70.6733105 C103.907416,70.6733105 102.695601,69.4614964 102.695601,67.9666373 C102.695601,66.4717783 103.907416,65.2599642 105.402275,65.2599642 C106.897134,65.2599642 108.108948,66.4717783 108.108948,67.9666373 Z" id="Stroke-33" stroke="#2D82B7"></path>
                    <line x1="102.210943" y1="35.290602" x2="101.660397" y2="34.740001" id="Stroke-35" stroke="#FFBA52"></line>
                    <line x1="106.615597" y1="39.6952555" x2="106.065023" y2="39.1446546" id="Stroke-37" stroke="#FFBA52"></line>
                    <line x1="102.210943" y1="39.1446654" x2="101.660397" y2="39.6952664" id="Stroke-39" stroke="#FFBA52"></line>
                    <line x1="106.615597" y1="34.7400118" x2="106.065023" y2="35.2906128" id="Stroke-41" stroke="#FFBA52"></line>
                    <line x1="86.3763719" y1="86.9273405" x2="85.9803901" y2="86.5313857" id="Stroke-43" stroke="#FFBA52"></line>
                    <line x1="89.5442101" y1="90.0951787" x2="89.1482554" y2="89.6992239" id="Stroke-45" stroke="#FFBA52"></line>
                    <line x1="86.3763719" y1="89.6992131" x2="85.9803901" y2="90.0951679" id="Stroke-47" stroke="#FFBA52"></line>
                    <line x1="89.5442101" y1="86.5313722" x2="89.1482554" y2="86.927327" id="Stroke-49" stroke="#FFBA52"></line>
                    <line x1="0.543402517" y1="39.3609808" x2="0.0236442956" y2="38.8412496" id="Stroke-51" stroke="#FFBA52"></line>
                    <line x1="4.70138178" y1="43.5189601" x2="4.18162356" y2="42.9992019" id="Stroke-53" stroke="#FFBA52"></line>
                    <line x1="0.543402517" y1="42.9992019" x2="0.0236442956" y2="43.5189601" id="Stroke-55" stroke="#FFBA52"></line>
                    <line x1="4.70138178" y1="38.8412469" x2="4.18162356" y2="39.3609781" id="Stroke-57" stroke="#FFBA52"></line>
                    <line x1="23.469803" y1="88.6073478" x2="23.0738483" y2="88.211366" id="Stroke-59" stroke="#FFBA52"></line>
                    <line x1="26.6376413" y1="91.775159" x2="26.2416595" y2="91.3792043" id="Stroke-61" stroke="#FFBA52"></line>
                    <line x1="23.469803" y1="91.3791934" x2="23.0738483" y2="91.7751482" id="Stroke-63" stroke="#FFBA52"></line>
                    <line x1="26.6376413" y1="88.2113552" x2="26.2416595" y2="88.607337" id="Stroke-65" stroke="#FFBA52"></line>
                    <line x1="61.123629" y1="0.363246878" x2="60.7804393" y2="0.0200842708" id="Stroke-67" stroke="#FFBA52"></line>
                    <line x1="63.8689974" y1="3.10864235" x2="63.5258348" y2="2.76545271" id="Stroke-69" stroke="#FFBA52"></line>
                    <line x1="61.123629" y1="2.76545811" x2="60.7804393" y2="3.10864775" id="Stroke-71" stroke="#FFBA52"></line>
                    <line x1="63.8689974" y1="0.0200761614" x2="63.5258348" y2="0.363238769" id="Stroke-73" stroke="#FFBA52"></line>
                    <path d="M64.4561096,32.7113951 L51.3357285,45.831722 C50.961561,46.2059166 50.3549241,46.2059166 49.9807296,45.831722 L43.8824908,39.7334832 C42.9626961,38.8137155 41.4714052,38.8137155 40.5516105,39.7334832 L35.9364991,44.3486757 C35.017245,45.2679298 35.0166233,46.7580853 35.9350665,47.6780963 L48.9787596,60.7443876 C49.8983111,61.6655339 51.3906832,61.6661827 52.3110456,60.7458203 L72.4006686,40.6559811 C73.3204633,39.7361864 73.3204633,38.2449225 72.4006686,37.3251548 L67.7869899,32.7113951 C66.8671681,31.7916003 65.3759043,31.7916003 64.4561096,32.7113951 Z" id="Stroke-75" stroke="#38B3B6" opacity="0.7"></path>
                    <polyline id="Stroke-77" stroke="#FF9900" points="50.6456622 59.0662049 37.6088891 46.0070228 42.2241085 41.4058867 45.1168923 44.3054823"></polyline>
                    <polyline id="Stroke-79" stroke="#FF9900" points="60.4214472 40.0908914 66.1285157 34.3836066 70.72803 38.9972312 56.2125625 53.5029944"></polyline>
                </g>
            </g>
        </g>
    </g>
</svg>