<?xml version="1.0" encoding="UTF-8"?>
<svg width="146px" height="153px" viewBox="0 0 146 153" version="1.1" xmlns="http://www.w3.org/2000/svg" xmlns:xlink="http://www.w3.org/1999/xlink">
    <title>Group 3</title>
    <defs>
        <polygon id="path-1" points="0 0.411764706 146 0.411764706 146 151.411765 0 151.411765"></polygon>
    </defs>
    <g id="Presencial" stroke="none" stroke-width="1" fill="none" fill-rule="evenodd">
        <g id="Group-3" transform="translate(0.000000, 0.588235)">
            <mask id="mask-2" fill="white">
                <use xlink:href="#path-1"></use>
            </mask>
            <g id="Clip-2"></g>
            <path d="M54.5705337,117.111597 L54.5705337,113.576117 C54.5705337,112.249115 55.6511951,111.170278 56.9807376,111.170278 L60.5165028,111.170278 C61.8583029,111.170278 62.9268399,112.249115 62.9268399,113.576117 L62.9268399,117.111597 C62.9268399,118.438732 61.8583029,119.522224 60.5165028,119.522224 L56.9807376,119.522224 C55.6511951,119.522224 54.5705337,118.438732 54.5705337,117.111597 L54.5705337,117.111597 Z M26.0707053,74.617878 L26.0707053,71.0883826 C26.0707053,69.7605827 27.1500343,68.6769576 28.4795769,68.6769576 L32.0264004,68.6769576 C33.3568756,68.6769576 34.4376702,69.7605827 34.4376702,71.0883826 L34.4376702,74.617878 C34.4376702,75.9451459 33.3568756,77.0239833 32.0264004,77.0239833 L28.4795769,77.0239833 C27.1500343,77.0239833 26.0707053,75.9451459 26.0707053,74.617878 L26.0707053,74.617878 Z M83.0622349,117.111597 L83.0622349,113.576117 C83.0622349,112.249115 84.1416971,111.170278 85.4713729,111.170278 L89.0189959,111.170278 C90.3485384,111.170278 91.4291998,112.249115 91.4291998,113.576117 L91.4291998,117.111597 C91.4291998,118.438732 90.3485384,119.522224 89.0189959,119.522224 L85.4713729,119.522224 C84.1416971,119.522224 83.0622349,118.438732 83.0622349,117.111597 L83.0622349,117.111597 Z M54.5705337,95.867198 L54.5705337,92.333048 C54.5705337,91.0048491 55.6511951,89.9272086 56.9807376,89.9272086 L60.5165028,89.9272086 C61.8583029,89.9272086 62.9268399,91.0048491 62.9268399,92.333048 L62.9268399,95.867198 C62.9268399,97.1955299 61.8583029,98.279288 60.5165028,98.279288 L56.9807376,98.279288 C55.6511951,98.279288 54.5705337,97.1955299 54.5705337,95.867198 L54.5705337,95.867198 Z M26.0707053,117.111597 L26.0707053,113.576117 C26.0707053,112.249115 27.1500343,111.170278 28.4795769,111.170278 L32.0264004,111.170278 C33.3568756,111.170278 34.4376702,112.249115 34.4376702,113.576117 L34.4376702,117.111597 C34.4376702,118.438732 33.3568756,119.522224 32.0264004,119.522224 L28.4795769,119.522224 C27.1500343,119.522224 26.0707053,118.438732 26.0707053,117.111597 L26.0707053,117.111597 Z M26.0707053,95.867198 L26.0707053,92.333048 C26.0707053,91.0048491 27.1500343,89.9272086 28.4795769,89.9272086 L32.0264004,89.9272086 C33.3568756,89.9272086 34.4376702,91.0048491 34.4376702,92.333048 L34.4376702,95.867198 C34.4376702,97.1955299 33.3568756,98.279288 32.0264004,98.279288 L28.4795769,98.279288 C27.1500343,98.279288 26.0707053,97.1955299 26.0707053,95.867198 L26.0707053,95.867198 Z M54.5705337,74.617878 L54.5705337,71.0883826 C54.5705337,69.7605827 55.6511951,68.6769576 56.9807376,68.6769576 L60.5165028,68.6769576 C61.8583029,68.6769576 62.9268399,69.7605827 62.9268399,71.0883826 L62.9268399,74.617878 C62.9268399,75.9451459 61.8583029,77.0239833 60.5165028,77.0239833 L56.9807376,77.0239833 C55.6511951,77.0239833 54.5705337,75.9451459 54.5705337,74.617878 L54.5705337,74.617878 Z M111.562063,117.111597 L111.562063,113.576117 C111.562063,112.249115 112.643391,111.170278 113.9736,111.170278 L117.509498,111.170278 C118.838774,111.170278 119.91837,112.249115 119.91837,113.576117 L119.91837,117.111597 C119.91837,118.438732 118.838774,119.522224 117.509498,119.522224 L113.9736,119.522224 C112.643391,119.522224 111.562063,118.438732 111.562063,117.111597 L111.562063,117.111597 Z M111.562063,74.617878 L111.562063,71.0883826 C111.562063,69.7605827 112.643391,68.6769576 113.9736,68.6769576 L117.509498,68.6769576 C118.838774,68.6769576 119.91837,69.7605827 119.91837,71.0883826 L119.91837,74.617878 C119.91837,75.9451459 118.838774,77.0239833 117.509498,77.0239833 L113.9736,77.0239833 C112.643391,77.0239833 111.562063,75.9451459 111.562063,74.617878 L111.562063,74.617878 Z M111.562063,95.867198 L111.562063,92.333048 C111.562063,91.0048491 112.643391,89.9272086 113.9736,89.9272086 L117.509498,89.9272086 C118.838774,89.9272086 119.91837,91.0048491 119.91837,92.333048 L119.91837,95.867198 C119.91837,97.1955299 118.838774,98.279288 117.509498,98.279288 L113.9736,98.279288 C112.643391,98.279288 111.562063,97.1955299 111.562063,95.867198 L111.562063,95.867198 Z M83.0622349,95.867198 L83.0622349,92.333048 C83.0622349,91.0048491 84.1416971,89.9272086 85.4713729,89.9272086 L89.0189959,89.9272086 C90.3485384,89.9272086 91.4291998,91.0048491 91.4291998,92.333048 L91.4291998,95.867198 C91.4291998,97.1955299 90.3485384,98.279288 89.0189959,98.279288 L85.4713729,98.279288 C84.1416971,98.279288 83.0622349,97.1955299 83.0622349,95.867198 L83.0622349,95.867198 Z M83.0622349,74.617878 L83.0622349,71.0883826 C83.0622349,69.7605827 84.1416971,68.6769576 85.4713729,68.6769576 L89.0189959,68.6769576 C90.3485384,68.6769576 91.4291998,69.7605827 91.4291998,71.0883826 L91.4291998,74.617878 C91.4291998,75.9451459 90.3485384,77.0239833 89.0189959,77.0239833 L85.4713729,77.0239833 C84.1416971,77.0239833 83.0622349,75.9451459 83.0622349,74.617878 L83.0622349,74.617878 Z M140.178871,47.1998209 L5.8213952,47.1998209 L5.8213952,22.1997055 C5.8213952,18.1256048 9.14092147,14.80677 13.2226797,14.80677 L26.5472835,14.80677 L26.5472835,20.3836891 C26.5472835,25.0027943 30.3099462,28.7585103 34.9372979,28.7585103 C39.5697124,28.7585103 43.3383707,25.0027943 43.3383707,20.3836891 L43.3383707,14.80677 L102.661496,14.80677 L102.661496,20.3836891 C102.661496,25.0027943 106.424026,28.7585103 111.051777,28.7585103 C115.683792,28.7585103 119.452583,25.0027943 119.452583,20.3836891 L119.452583,14.80677 L132.766395,14.80677 C136.854149,14.80677 140.178871,18.1256048 140.178871,22.1997055 L140.178871,47.1998209 Z M140.178871,127.789587 C140.178871,131.869806 136.854149,135.188641 132.766395,135.188641 L13.2226797,135.188641 C9.14092147,135.188641 5.8213952,131.869806 5.8213952,127.789587 L5.8213952,53.0105413 L140.178871,53.0105413 L140.178871,127.789587 Z M128.923659,145.60131 L17.0764745,145.60131 C14.0184867,145.60131 11.5404666,143.524894 10.7108182,140.744813 C11.5295415,140.90334 12.3641195,140.999228 13.2226797,140.999228 L132.766395,140.999228 C133.629752,140.999228 134.471658,140.90334 135.278257,140.744813 C134.455003,143.524894 131.970588,145.60131 128.923659,145.60131 L128.923659,145.60131 Z M32.3680125,8.79270358 C32.3680125,7.37380363 33.5156906,6.22235216 34.9372979,6.22235216 C36.357706,6.22235216 37.5173752,7.37380363 37.5173752,8.79270358 L37.5173752,20.3836891 C37.5173752,21.7967374 36.357706,22.9492528 34.9372979,22.9492528 C33.5156906,22.9492528 32.3680125,21.7967374 32.3680125,20.3836891 L32.3680125,8.79270358 Z M108.482891,8.79270358 C108.482891,7.37380363 109.63017,6.22235216 111.051777,6.22235216 C112.473118,6.22235216 113.63292,7.37380363 113.63292,8.79270358 L113.63292,20.3836891 C113.63292,21.7967374 112.473118,22.9492528 111.051777,22.9492528 C109.63017,22.9492528 108.482891,21.7967374 108.482891,20.3836891 L108.482891,8.79270358 Z M119.452583,8.99618253 L119.452583,8.79270358 C119.452583,4.17253448 115.683792,0.411764706 111.051777,0.411764706 C106.424026,0.411764706 102.661496,4.17253448 102.661496,8.79270358 L102.661496,8.99618253 L43.3383707,8.99618253 L43.3383707,8.79270358 C43.3383707,4.17253448 39.5697124,0.411764706 34.9372979,0.411764706 C30.3099462,0.411764706 26.5472835,4.17253448 26.5472835,8.79270358 L26.5472835,8.99618253 L13.2226797,8.99618253 C5.93504384,8.99618253 0,14.9206118 0,22.1997055 L0,127.789587 C0,131.728169 1.76375231,135.228539 4.51343656,137.651268 L4.51343656,138.87161 C4.51343656,145.787633 10.1464388,151.411765 17.0764745,151.411765 L128.923659,151.411765 C135.8461,151.411765 141.48643,145.787633 141.48643,138.87161 L141.48643,137.651268 C144.225322,135.228539 146,131.728169 146,127.789587 L146,22.1997055 C146,14.9206118 140.065889,8.99618253 132.766395,8.99618253 L119.452583,8.99618253 Z" id="Fill-1" fill="#FFFFFF" mask="url(#mask-2)"></path>
        </g>
    </g>
</svg>