<?xml version="1.0" encoding="UTF-8"?>
<svg width="203px" height="202px" viewBox="0 0 203 202" version="1.1" xmlns="http://www.w3.org/2000/svg" xmlns:xlink="http://www.w3.org/1999/xlink">
    <title>Group 5</title>
    <defs>
        <polygon id="path-1" points="0.119340499 0.178348369 47.168091 0.178348369 47.168091 47.628 0.119340499 47.628"></polygon>
        <polygon id="path-3" points="0.0514391004 0.150822 126.903703 0.150822 126.903703 142.50995 0.0514391004 142.50995"></polygon>
    </defs>
    <g id="Presencial" stroke="none" stroke-width="1" fill="none" fill-rule="evenodd">
        <g id="Group-5">
            <g id="Group-19">
                <circle id="Oval-Copy-2" fill="#38B3B6" opacity="0.114112464" cx="101.2" cy="100.8" r="89.2"></circle>
                <circle id="Oval-Copy-7" stroke="#38B3B6" stroke-width="0.8" cx="101.6" cy="100.8" r="100.4"></circle>
            </g>
            <g id="Group-31" transform="translate(47.000000, 44.000000)">
                <path d="M90.976117,58.8223881 C88.969126,80.6865066 69.5485885,96.8409981 47.684911,94.8340071 C25.8212335,92.8270161 9.66652155,73.4069196 11.673292,51.5428011 C13.680283,29.6791236 33.1008205,13.5244116 54.964498,15.5311821 C76.8281755,17.5381731 92.983108,36.9584901 90.976117,58.8223881 M124.530264,144.884861 C125.608729,143.987647 126.22194,142.737632 126.340789,141.442856 C126.459639,140.147639 126.084568,138.807661 125.186913,137.728534 L86.758834,91.5326811 C95.129014,83.3863086 100.75441,72.3410226 101.903215,59.8254426 C104.46322,31.9366026 83.8563925,7.1643096 55.967332,4.6043046 C28.078492,2.0442996 3.30641955,22.6509066 0.74641455,50.5397466 C-1.81359045,78.4285866 18.7930165,103.20088 46.6818565,105.761105 C57.384706,106.743653 67.6262695,104.310877 76.33183,99.3674871 L78.7346185,97.7783436 L117.373936,144.227992 C119.168586,146.385584 122.372671,146.679731 124.530264,144.884861" id="Fill-1" fill="#F9F9F9"></path>
                <path d="M6.56241075,31.1020322 C4.52344725,35.4147917 2.71181925,39.8724197 1.43269875,44.4733727 C0.25059825,48.7246127 -0.13814325,53.0488382 0.04200525,57.4522232 C0.38091375,65.7368492 2.80090125,73.8885137 7.00737975,81.0313907 C15.4302593,95.3341232 30.5790502,104.794014 47.1315442,106.055936 C57.5642813,106.8515 68.9822123,104.526327 77.7898642,98.7015992 C78.2361563,98.4063497 77.1753308,98.5115282 76.9685018,98.6484587 C68.7987563,104.05115 58.2914903,106.241817 48.6062483,105.653303 C40.3176533,105.149681 32.2063403,102.585707 25.1463713,98.2114277 C11.6945483,89.8765277 2.67014475,75.3596897 1.26467775,59.5853402 C0.83911275,54.8088692 1.02411225,49.9671302 2.21415075,45.3095087 C3.48202575,40.3467152 5.42904075,35.5464302 7.61507775,30.9227657 C7.70305725,30.7366637 6.69625425,30.8186897 6.56241075,31.1020322" id="Fill-3" stroke="#555555" stroke-width="0.2" fill="#555555"></path>
                <g id="Group-7" transform="translate(79.159500, 98.633178)">
                    <mask id="mask-2" fill="white">
                        <use xlink:href="#path-1"></use>
                    </mask>
                    <g id="Clip-6"></g>
                    <path d="M0.14087745,0.61252695 C5.14269945,6.62534145 10.144301,12.6379354 15.146123,18.6509704 C22.045568,26.9448574 28.945013,35.2389649 35.8442374,43.5328519 C36.4585505,44.2713064 37.0569874,45.0267394 37.6884995,45.7501999 C40.3124495,48.7547329 45.2578235,47.9977564 47.162282,44.5901494 C47.2524665,44.4283024 46.2650674,44.4913654 46.109615,44.7694159 C44.3268725,47.9600509 40.630631,47.6894974 38.481197,45.1281694 C37.7947804,44.3103349 37.11542,43.4861059 36.432311,42.6654049 C33.5788205,39.2348659 30.7251095,35.8045474 27.871619,32.3740084 C20.678027,23.7262189 13.484435,15.0784294 6.29084295,6.43086045 C4.57447095,4.36764195 2.85809895,2.30464395 1.14194745,0.24142545 C0.96731145,0.03128895 -0.03949155,0.39555495 0.14087745,0.61252695" id="Fill-5" stroke="#555555" stroke-width="0.2" fill="#555555" mask="url(#mask-2)"></path>
                </g>
                <path d="M30.9765456,21.2480194 C42.0427791,14.5342355 55.9671336,13.8023959 67.6864881,19.2943894 C77.0398776,23.6777089 84.4570566,31.7186824 88.0878096,41.3876074 C90.1918206,46.990733 90.9673191,53.0083984 90.4436316,58.9649854 C90.4288581,59.1323449 91.4790996,59.0141569 91.5086466,58.6796584 C92.4839181,47.5863034 88.7718006,36.4828054 81.2809746,28.2321364 C73.6701966,19.849388 62.6798151,15.0740194 51.3661806,15.1353185 C43.8846156,15.1758904 36.5435091,17.3193709 30.1551831,21.194879 C29.7029376,21.469181 30.7668501,21.3752479 30.9765456,21.2480194" id="Fill-8" fill="#6A79A8"></path>
                <path d="M93.6744417,55.012523 C91.6672302,76.876421 72.2469132,93.0309124 50.3832357,91.024142 C28.5195582,89.017151 12.3648462,69.596834 14.3716167,47.732936 C16.3786077,25.8690379 35.7991452,9.71432595 57.6628227,11.721317 C79.5265002,13.728308 95.6814327,33.148625 93.6744417,55.012523 M127.228368,141.074996 C128.307054,140.177781 128.920264,138.927767 129.039114,137.632991 C129.157963,136.337774 128.782893,134.997575 127.885237,133.918668 L89.4571587,87.7225955 C97.8271182,79.5764435 103.452514,68.530937 104.60154,56.0155775 C107.161324,28.126517 86.5547172,3.35444445 58.6656567,0.79443945 C30.7768167,-1.76578605 6.0047442,18.8410415 3.4445187,46.7298815 C0.8847342,74.6187215 21.4913412,99.3910145 49.3801812,101.95124 C60.0828102,102.933567 70.3245942,100.501011 79.0301547,95.557622 L81.4329432,93.9684785 L120.072261,140.418126 C121.86691,142.575719 125.070996,142.869866 127.228368,141.074996" id="Fill-10" fill="#F9F9F9"></path>
                <g id="Group-14" transform="translate(2.646000, 0.069678)">
                    <mask id="mask-4" fill="white">
                        <use xlink:href="#path-3"></use>
                    </mask>
                    <g id="Clip-13"></g>
                    <path d="M125.557419,133.41648 C124.921497,132.638776 124.272345,131.871877 123.630028,131.099686 C120.726925,127.609833 117.824043,124.119979 114.92116,120.630346 C107.500233,111.709357 100.079526,102.788368 92.6585982,93.8675997 C90.8725482,91.7208117 89.0867187,89.5740237 87.3011097,87.4270152 C87.2841312,87.5471877 87.2673732,87.6671397 87.2506152,87.7870917 C95.5433997,79.6623282 100.947855,68.8895802 102.338548,57.3479487 C103.549314,47.2988817 101.722912,37.0081467 97.0990272,28.0031472 C92.6773407,19.3915197 85.8142782,12.1000257 77.4668097,7.1916957 C68.8576077,2.1296772 58.8195657,-0.2854593 48.8503197,0.2155167 C39.0726882,0.7065702 29.5148952,4.0676517 21.5513172,9.7558902 C13.6338237,15.4112742 7.3647882,23.3009847 3.7331532,32.3342082 C-0.0371763,41.7120732 -0.9482823,52.1681832 1.1689587,62.0538597 C3.2165217,71.6142987 8.0803107,80.5075047 14.9850477,87.4248102 C21.9338847,94.3864362 30.8502432,99.2733777 40.4766117,101.317413 C52.2938682,103.826703 64.8140787,102.097101 75.4743717,96.3969552 C76.7486412,95.7153897 77.9283162,94.9103442 79.1326872,94.1136777 L78.2974332,94.1247027 L93.1514157,111.981454 C100.244019,120.507748 107.336401,129.033822 114.429004,137.560116 C115.214646,138.504517 115.993672,139.455313 116.78637,140.393982 C118.868772,142.859833 122.375824,143.217043 124.928112,141.220195 C125.171465,141.029798 125.150975,140.867891 125.017445,140.768832 C124.839063,140.636497 124.458945,140.616323 124.236624,140.79022 C121.961284,142.570537 119.291911,141.776517 117.582595,139.721677 L115.371201,137.06355 C112.384308,133.472487 109.397415,129.881865 106.410301,126.291022 C99.1044747,117.508287 91.7984277,108.725551 84.4923807,99.9428157 C82.7539587,97.8526962 81.0155367,95.7627972 79.2768942,93.6726777 C79.0797672,93.4356402 78.6550842,93.5425827 78.4414197,93.6837027 C60.7515867,105.382551 36.8787132,103.968705 20.3359212,90.8716662 C4.9256172,78.6711807 -2.1059073,58.1181552 2.6097057,39.0367467 C7.2770292,20.1507012 23.0368257,5.2506342 42.1704927,1.6966152 C61.6803327,-1.9273023 81.8803377,6.7341582 92.9650932,23.1212772 C98.3441907,31.0733892 101.397234,40.5363672 101.619498,50.1389217 C101.877924,61.2940167 98.4096792,72.4036887 91.7536662,81.3701007 C90.1270377,83.5614297 88.3204812,85.6096542 86.3717022,87.5189637 C86.2782102,87.6104712 86.2292592,87.7683492 86.3214282,87.8790402 C90.9841212,93.4841502 95.6468142,99.0894807 100.309728,104.694811 C107.322069,113.124526 114.33441,121.554682 121.346971,129.984397 C122.309233,131.14114 123.271716,132.298104 124.233978,133.454847 C124.400014,133.65462 124.571784,133.850424 124.732528,134.054386 C126.411636,136.18618 126.168865,139.067233 124.142911,140.871144 C123.66156,141.299796 124.701879,141.424378 125.021824,141.139272 C127.350745,139.066131 127.505316,135.798321 125.557419,133.41648 Z" id="Fill-12" stroke="#555555" stroke-width="0.4" fill="#555555" mask="url(#mask-4)"></path>
                </g>
                <path d="M93.1371934,55.0617165 C91.5820069,71.315433 79.935197,85.3473915 64.0902875,89.5439475 C48.0925715,93.780855 30.8230115,87.113817 21.562232,73.4717025 C12.302555,59.830911 12.587,41.2813485 22.3536065,27.9741735 C32.129474,14.6546505 49.6224005,8.783397 65.4357785,13.651596 C80.8612969,18.4005045 92.0884954,32.6289285 93.213707,48.7144035 C93.3616624,50.829219 93.3228544,52.9506495 93.1371934,55.0617165 C93.092432,55.5723945 94.1726615,55.4039325 94.2114695,54.963153 C95.6877169,38.1687705 86.274572,21.826854 70.897784,14.8217895 C55.667408,7.8835365 37.2836615,11.2818825 25.452734,23.082381 C13.421813,35.082432 10.2424235,53.966934 17.8271825,69.2014995 C25.327049,84.265839 41.840735,93.235338 58.569188,91.2867795 C74.9521175,89.378793 88.970405,77.301126 93.109631,61.3093635 C93.648533,59.2265205 94.006625,57.104208 94.2114695,54.963153 C94.2602,54.453798 93.1793089,54.6207165 93.1371934,55.0617165" id="Fill-15" fill="#6A79A8"></path>
                <path d="M57.6627345,11.7212949 C35.799057,9.7143039 16.37874,25.8690159 14.3715285,47.7329139 C12.364758,69.5968119 28.5196905,89.0171289 50.3831475,91.0241199 C72.2470455,93.0308904 91.6673625,76.8763989 93.6743535,55.0125009 C95.6813445,33.1486029 79.526412,13.7282859 57.6627345,11.7212949" id="Fill-17" fill="#FFFFFF"></path>
                <path d="M57.8623531,11.3910741 C41.2463551,9.9302616 24.9108332,19.0075851 17.6391841,34.0820676 C10.2804377,49.3366986 13.5433967,68.0309091 25.5804917,79.9255611 C37.5657692,91.7688366 56.2235972,94.8271716 71.4041402,87.5427336 C86.5564591,80.2721871 95.8705996,63.9926721 94.1758367,47.2260726 C92.5004776,30.6460161 80.1846707,16.4848446 64.0352507,12.4362441 C62.0077531,11.9279916 59.9423296,11.5899651 57.8623531,11.3910741 C57.4147382,11.3482971 56.7453002,11.9828961 57.4632481,12.0516921 C73.6991041,13.6051146 87.6216946,25.3308636 91.9172551,41.0739021 C96.2551517,56.9712906 89.9850137,74.3574951 76.4877676,83.8076841 C62.8745386,93.3390171 44.2841837,93.0437676 30.9097561,83.2074831 C17.7220922,73.5085701 11.7873347,56.2046121 16.2451831,40.4540766 C20.6823047,24.7756446 34.8816226,13.1142816 51.1578301,11.9758401 C53.2594156,11.8287666 55.3654111,11.8671336 57.4632481,12.0516921 C57.9102017,12.0909411 58.5805216,11.4541371 57.8623531,11.3910741" id="Fill-19" stroke="#555555" stroke-width="0.3" fill="#555555"></path>
                <path d="M68.0469174,61.851573 C65.8633059,59.1877125 62.5280229,57.2279085 59.2758684,56.234997 C53.8081299,54.565812 47.7734859,55.6433955 43.0201674,58.7427435 C41.9148009,59.4633375 40.8001734,60.294843 39.9124404,61.281801 C39.4734249,61.7697675 40.4980884,61.8720795 40.7904714,61.5470625 C42.8938209,59.209101 46.0425609,57.5864415 49.0325409,56.781837 C54.4436109,55.326096 60.1051689,56.587356 64.5339114,59.9568165 C65.4419304,60.6474225 66.3406884,61.4160855 67.0672359,62.302275 C67.3463889,62.6429475 68.3655399,62.2403145 68.0469174,61.851573" id="Fill-21" fill="#2D82B7"></path>
                <path d="M42.0193194,45.7558227 C42.0245878,44.6542047 41.1359728,43.7569902 40.0343548,43.7516747 C38.9325163,43.7464062 38.0353018,44.6350212 38.0299863,45.7368597 C38.0247178,46.8382572 38.9135533,47.7356922 40.0151713,47.7410077 C41.1167893,47.7462762 42.0140038,46.8574407 42.0193194,45.7558227" id="Fill-23" fill="#2D82B7"></path>
                <path d="M69.3826398,45.9061155 C69.3876897,44.8044975 68.4990747,43.907283 67.3974567,43.9019675 C66.2958387,43.896699 65.3986242,44.785314 65.3930901,45.886932 C65.3880402,46.98855 66.2766552,47.885985 67.3782732,47.8912986 C68.4798912,47.8963485 69.3773262,47.0077335 69.3826398,45.9061155" id="Fill-25" fill="#2D82B7"></path>
                <path d="M35.8361451,54.7310768 C35.8590771,56.8595633 34.5837051,58.5990878 32.9875056,58.6162868 C31.3910856,58.6334857 30.0784491,56.9221853 30.0552966,54.7936988 C30.0323646,52.6652123 31.3077366,50.9259083 32.9039361,50.9087093 C34.5003561,50.8912898 35.8132131,52.6028108 35.8361451,54.7310768" id="Fill-27" fill="#FF9900"></path>
                <path d="M77.2674336,54.2825357 C77.2903656,56.4110222 76.0149936,58.1505467 74.4187941,58.1677457 C72.8225946,58.1849446 71.5097376,56.4736442 71.4865851,54.3451577 C71.4636531,52.2166711 72.7390251,50.4773672 74.3352246,50.4601682 C75.9316446,50.4427487 77.2445016,52.1540491 77.2674336,54.2825357" id="Fill-29" fill="#FF9900"></path>
            </g>
        </g>
    </g>
</svg>