<?xml version="1.0" encoding="UTF-8"?>
<svg width="148px" height="148px" viewBox="0 0 148 148" version="1.1" xmlns="http://www.w3.org/2000/svg" xmlns:xlink="http://www.w3.org/1999/xlink">
    <title>call (1)</title>
    <g id="Presencial" stroke="none" stroke-width="1" fill="none" fill-rule="evenodd">
        <g id="call-(1)" transform="translate(1.000000, 1.000000)" fill="#FFFFFF" fill-rule="nonzero" stroke="#FFFFFF">
            <path d="M142.168896,112.633756 L112.617965,92.9253248 C108.867859,90.4443778 103.841014,91.2607151 101.068564,94.8012184 L92.460686,105.869532 C91.3544435,107.328276 89.3435341,107.751414 87.7431889,106.862367 L86.1057788,105.959635 C80.6777775,103.000804 73.9239957,99.3171635 60.3163572,85.7037474 C46.7087187,72.0903314 43.0179173,65.3309555 40.0592887,59.9125627 L39.1614646,58.2750408 C38.260219,56.6748713 38.6753451,54.6552704 40.1345588,53.5401131 L51.1947032,44.9342124 C54.7335389,42.1612887 55.5509609,37.1355248 53.0730346,33.3840227 L33.3659512,3.83107111 C30.8264403,0.0108518519 25.7314521,-1.13595527 21.8000144,1.2275167 L9.44288613,8.65096858 C5.56020292,10.9337478 2.7116284,14.6307893 1.4944765,18.9673854 C-2.95529856,35.1817897 0.39222556,63.1653662 41.6117347,104.392541 C74.4009915,137.181473 98.8110314,145.999623 115.588853,145.999623 C119.450153,146.015765 123.296341,145.51336 127.023922,144.505413 C131.361077,143.289604 135.058437,140.440549 137.339634,136.55646 L144.769991,124.205901 C147.136723,120.273339 145.990565,115.174866 142.168896,112.633756 Z M140.577674,121.709271 L133.164424,134.067244 C131.526444,136.870677 128.867185,138.931908 125.74376,139.819243 C110.776128,143.928873 84.6266071,140.524949 45.0542018,100.949838 C5.48179656,61.3747276 2.07839008,35.2257003 6.18773896,20.2547634 C7.07615436,17.1274187 9.13980989,14.4645565 11.9464726,12.823898 L24.3036009,5.41014069 C26.0094383,4.38365992 28.2207829,4.88121796 29.3227487,6.5389844 L40.0279262,22.6122476 L49.0130105,36.0893698 C50.0890309,37.7166269 49.7354895,39.8976134 48.2004354,41.1017324 L37.137725,49.7076331 C33.7710982,52.2821039 32.8096936,56.9403306 34.8824728,60.6373722 L35.7609092,62.2335498 C38.8703631,67.936791 42.7362246,75.031769 56.8499405,89.1441688 C70.9636565,103.256283 78.0558686,107.122694 83.7561539,110.232076 L85.3545033,111.112853 C89.051007,113.185489 93.7092005,112.224304 96.2834953,108.857447 L104.888808,97.7939801 C106.093129,96.2596765 108.273112,95.906396 109.900828,96.9813495 L139.449193,116.68978 C141.107987,117.790966 141.605511,120.003602 140.577674,121.709271 Z" id="Shape" stroke-width="0.5103"></path>
            <path d="M82.4499139,23.8998277 C105.44201,23.9253806 124.074332,42.5579905 124.100172,65.5500861 C124.100172,66.9032379 125.196934,68 126.550086,68 C127.903238,68 129,66.9032379 129,65.5500861 C128.971576,39.8528354 108.147165,19.0281368 82.4499139,19 C81.0967621,19 80,20.0967621 80,21.4499139 C80,22.8030656 81.0967621,23.8998277 82.4499139,23.8998277 Z" id="Path" stroke-width="0.5"></path>
            <path d="M82.4284901,38.8569802 C97.1753135,38.8743408 109.125659,50.8246865 109.14302,65.5715099 C109.14302,66.9128288 110.230476,68 111.57151,68 C112.912829,68 114,66.9128288 114,65.5715099 C113.979793,48.1431872 99.8565282,34.019922 82.4284901,34 C81.0871712,34 80,35.0871712 80,36.4284901 C80,37.769809 81.0871712,38.8569802 82.4284901,38.8569802 Z" id="Path" stroke-width="0.5"></path>
            <path d="M83.3749304,53.7498608 C89.9299944,53.7576539 95.2420678,59.0697272 95.2501392,65.6250696 C95.2501392,66.936806 96.3136115,68 97.6250696,68 C98.9365277,68 100,66.936806 100,65.6250696 C99.9894237,56.447646 92.552354,49.010298 83.3749304,49 C82.063194,49 81,50.063194 81,51.3749304 C81,52.6866669 82.063194,53.7498608 83.3749304,53.7498608 Z" id="Path" stroke-width="0.5"></path>
        </g>
    </g>
</svg>