<?xml version="1.0" encoding="UTF-8"?>
<svg width="93px" height="93px" viewBox="0 0 93 93" version="1.1" xmlns="http://www.w3.org/2000/svg" xmlns:xlink="http://www.w3.org/1999/xlink">
    <title>Group 8</title>
    <defs>
        <polygon id="path-1" points="0.0154181154 0.0314734589 33.8441945 0.0314734589 33.8441945 65.1798032 0.0154181154 65.1798032"></polygon>
        <polygon id="path-3" points="0 0.00335011704 9.4831654 0.00335011704 9.4831654 10.2122044 0 10.2122044"></polygon>
        <polygon id="path-5" points="0.0245339692 0.00998534132 9.50770086 0.00998534132 9.50770086 10.2188633 0.0245339692 10.2188633"></polygon>
    </defs>
    <g id="Nuevos-cambios" stroke="none" stroke-width="1" fill="none" fill-rule="evenodd">
        <g id="tipo-de-cita1" transform="translate(-77.000000, -351.000000)">
            <g id="Group-8" transform="translate(77.000000, 351.000000)">
                <g id="Group-3">
                    <circle id="Oval" fill="#38B3B6" opacity="0.2" cx="46.0565217" cy="46.3434783" r="39.1695652"></circle>
                    <circle id="Oval-Copy" stroke="#38B3B6" stroke-width="0.55" opacity="0.6" cx="46.2" cy="46.2" r="45.925"></circle>
                </g>
                <g id="Group-76" transform="translate(24.458824, 13.588235)">
                    <g id="Group-3" transform="translate(4.860722, 0.003096)">
                        <mask id="mask-2" fill="white">
                            <use xlink:href="#path-1"></use>
                        </mask>
                        <g id="Clip-2"></g>
                        <path d="M33.273679,7.55585564 L33.273679,57.6557547 C33.273679,57.7493151 33.2719959,57.8432196 33.2686633,57.9357137 C33.1245554,61.9615647 29.8852749,65.1798032 25.9104414,65.1798032 L7.37868935,65.1798032 C3.53749487,65.1798032 0.38300942,62.1738299 0.0453774799,58.3385396 C0.0255504398,58.1135817 0.0154181154,57.8862161 0.0154181154,57.6557547 L0.0154181154,7.55585564 C0.0154181154,3.40032715 3.3122947,0.0314631397 7.37868935,0.0314631397 L25.9104414,0.0314631397 C27.3864955,0.0314631397 28.7612601,0.475187315 29.9135511,1.23983758 C31.9359765,2.58132927 33.273679,4.90864537 33.273679,7.55585564" id="Fill-1" fill="#E9E9E9" mask="url(#mask-2)"></path>
                    </g>
                    <path d="M5.94683866,22.8562598 C5.94649626,22.8576357 5.94581147,22.8590115 5.94478428,22.8607314 C5.93759395,22.8765541 5.93006123,22.8923768 5.92218611,22.9078556 C5.90609347,22.9408769 5.88931604,22.9732103 5.87185382,23.0055437 C5.86363631,23.0213664 5.854734,23.0375331 5.84548929,23.0533558 C5.82015195,23.0977283 5.79378742,23.1410688 5.7660533,23.1837213 C5.75441182,23.2019519 5.74208554,23.2201824 5.72975927,23.2380689 C5.71948737,23.2532037 5.70921547,23.2679945 5.69860118,23.2824414 C5.67189425,23.3202783 5.64381774,23.3574273 5.61471403,23.3935444 C5.60273016,23.4090231 5.59040388,23.4241579 5.57773521,23.4389487 C5.56540894,23.4537395 5.55274026,23.4685303 5.5397292,23.4833211 C5.52706052,23.4981119 5.51404946,23.5125588 5.50069599,23.5270056 C5.48665774,23.5424844 5.47193468,23.5579631 5.45721163,23.5734419 C5.44488536,23.5865128 5.43221669,23.5992398 5.41954802,23.6119667 C5.37503647,23.6563392 5.32915534,23.6993357 5.28190462,23.7406124 C5.27094793,23.7502436 5.25964884,23.7595308 5.24834976,23.7688181 C5.23191472,23.7829209 5.21513729,23.7966798 5.19801747,23.8104387 C5.184664,23.8211019 5.17131054,23.831421 5.15761468,23.8417402 C5.14460361,23.8517154 5.13159254,23.8616906 5.11858147,23.8709778 C5.02339524,23.9414921 4.92341546,24.005471 4.81898452,24.0625704 L4.81898452,24.4295887 L5.96875204,23.8881764 L5.96875204,22.8077597 C5.96156171,22.8239264 5.95437138,22.8400931 5.94683866,22.8562598 L5.94683866,22.8562598 Z M37.2086683,59.4473375 C37.2086683,61.9748454 35.1618219,64.0307674 32.6462346,64.0307674 L10.5311857,64.0307674 C10.4993428,64.0307674 10.4674999,64.0307674 10.4359995,64.0297355 C10.1932403,64.0249199 9.95527474,64.0004979 9.7231299,63.9588772 C7.59136915,63.5746603 5.96875204,61.6979134 5.96875204,59.4473375 L5.96875204,5.773223 C5.96875204,3.24571507 8.01525605,1.18979306 10.5311857,1.18979306 L13.1063499,1.18979306 C13.1053227,1.21180728 13.1046379,1.2338215 13.1046379,1.2561797 L13.1046379,1.59946398 C13.1046379,2.27399352 13.6490484,2.82090937 14.320488,2.82090937 L28.7196313,2.82090937 C29.3910709,2.82090937 29.9354814,2.27399352 29.9354814,1.59946398 L29.9354814,1.2561797 C29.9354814,1.2338215 29.9347966,1.21180728 29.9337694,1.18979306 L32.6462346,1.18979306 C33.2632332,1.18979306 33.8521552,1.31327909 34.3893411,1.53754898 C36.0427739,2.22652536 37.2086683,3.86555302 37.2086683,5.773223 L37.2086683,59.4473375 Z M38.4323935,16.7937492 C38.6494728,16.7579761 38.8151928,16.5687914 38.8151928,16.3410818 L38.8151928,13.3261652 C38.8151928,13.0984556 38.6494728,12.9092709 38.4323935,12.8734977 C38.4084257,12.8697141 38.3837731,12.8676502 38.3584358,12.8676502 L38.3584358,5.773223 C38.3584358,2.60902247 35.7959402,0.0347343156 32.6462346,0.0347343156 L10.5311857,0.0347343156 C7.38593124,0.0347343156 4.82617484,2.60179906 4.81898452,5.76015206 L4.81898452,14.8334515 C4.74126051,14.8334515 4.66798765,14.8530579 4.60361711,14.8877991 C4.56389911,14.9091254 4.52760508,14.9362992 4.4961046,14.9679446 C4.41324464,15.050842 4.36222756,15.1657287 4.36222756,15.2923105 L4.36222756,21.3217997 C4.36222756,21.4968815 4.45981057,21.6489172 4.60361711,21.726311 C4.66798765,21.7607082 4.74126051,21.7803146 4.81898452,21.7803146 L4.81898452,59.4566247 C4.82377807,62.3786688 7.01374622,64.7957617 9.8316696,65.1428297 C10.0569665,65.170657 10.2863722,65.1858262 10.5188594,65.1858262 L32.6462346,65.1858262 C35.7959402,65.1858262 38.3584358,62.611538 38.3584358,59.4473375 L38.3584358,22.6980325 C38.3837731,22.6980325 38.4084257,22.6959687 38.4323935,22.692185 C38.6494728,22.6564119 38.8151928,22.4672272 38.8151928,22.2391736 L38.8151928,19.224601 C38.8151928,18.9965474 38.6494728,18.8073627 38.4323935,18.7715895 C38.4084257,18.7678059 38.3837731,18.765742 38.3584358,18.765742 L38.3584358,16.7995968 C38.3837731,16.7995968 38.4084257,16.7975329 38.4323935,16.7937492 L38.4323935,16.7937492 Z M5.94683866,22.8562598 C5.94649626,22.8576357 5.94581147,22.8590115 5.94478428,22.8607314 C5.93759395,22.8765541 5.93006123,22.8923768 5.92218611,22.9078556 C5.90643587,22.9408769 5.88965844,22.9735543 5.87185382,23.0055437 C5.86363631,23.0213664 5.854734,23.0375331 5.84548929,23.0533558 C5.82049434,23.0977283 5.79378742,23.1410688 5.7660533,23.1837213 C5.75441182,23.2019519 5.74208554,23.2201824 5.72975927,23.2380689 C5.71982977,23.2532037 5.70955787,23.2676505 5.69860118,23.2824414 C5.67189425,23.3202783 5.64381774,23.3574273 5.61471403,23.3935444 C5.60273016,23.4090231 5.59040388,23.4241579 5.57773521,23.4389487 C5.56540894,23.4537395 5.55274026,23.4685303 5.5397292,23.4833211 C5.52706052,23.4981119 5.51404946,23.5125588 5.50069599,23.5270056 C5.48665774,23.5424844 5.47193468,23.5579631 5.45721163,23.5734419 C5.44488536,23.5865128 5.43221669,23.5992398 5.41954802,23.6119667 C5.37503647,23.6563392 5.32915534,23.6993357 5.28190462,23.7406124 C5.27094793,23.7502436 5.25964884,23.7595308 5.24834976,23.7688181 C5.23191472,23.7829209 5.21513729,23.7966798 5.19801747,23.8104387 C5.184664,23.8211019 5.17131054,23.831421 5.15761468,23.8417402 C5.14460361,23.8517154 5.13159254,23.8616906 5.11858147,23.8709778 C5.02339524,23.9414921 4.92341546,24.005471 4.81898452,24.0625704 L4.81898452,24.4295887 L5.96875204,23.8881764 L5.96875204,22.8077597 C5.96190411,22.8242703 5.95437138,22.8400931 5.94683866,22.8562598 L5.94683866,22.8562598 Z" id="Fill-8" fill="#2D82B7"></path>
                    <path d="M5.967718,22.8098201 C5.96121247,22.8252988 5.95402214,22.8407776 5.94683181,22.8562563 C5.94648942,22.8576322 5.94580462,22.8593521 5.94477743,22.860728 C5.93758711,22.8765507 5.93005438,22.8923734 5.92217926,22.9078522 C5.91293456,22.9271146 5.90334745,22.946377 5.89341796,22.9656395 C5.88622763,22.9790544 5.8790373,22.9924693 5.87184697,23.0055403 C5.87047739,23.008636 5.86876541,23.0120757 5.86671103,23.0151715 C5.86123268,23.0254907 5.85541194,23.0361538 5.8492488,23.0468169 C5.84822161,23.0488808 5.84685203,23.0509446 5.84548244,23.0533524 C5.83281377,23.0757106 5.8198027,23.0973809 5.80679164,23.1190511 C5.79343817,23.1410653 5.77974231,23.1623916 5.76604645,23.1837179 C5.75440497,23.2019484 5.74207869,23.2201789 5.72975242,23.2380655 C5.71982292,23.2528563 5.70955102,23.2676471 5.69859433,23.2824379 C5.68524087,23.3013564 5.67154501,23.3199309 5.65750675,23.3385054 C5.64346849,23.3570799 5.62908784,23.3756544 5.61470719,23.3935409 C5.56505969,23.4561439 5.51233063,23.5159951 5.45720479,23.5734384 C5.44487851,23.5865094 5.43220984,23.5992363 5.41954117,23.6119633 C5.3972854,23.6339775 5.37502962,23.6556478 5.35208905,23.6769741 C5.35174666,23.677318 5.35174666,23.677662 5.35140426,23.677662 C5.33223006,23.6958925 5.31271345,23.7134351 5.29285446,23.7309777 C5.23670143,23.7801657 5.17849402,23.826602 5.11857463,23.8709744 C5.09563406,23.887829 5.07269349,23.9043397 5.04941053,23.9201624 C5.04667136,23.9222263 5.04427458,23.9239461 5.04119301,23.92601 C5.02133401,23.9397688 5.00147502,23.9528398 4.98127362,23.9659107 C4.95833305,23.9803576 4.93539249,23.9948044 4.91176713,24.0089073 C4.90115284,24.0154427 4.89088094,24.0219782 4.88026665,24.0278257 C4.8655436,24.036425 4.85082055,24.0450243 4.8357551,24.0529357 C4.83027676,24.0563754 4.82479841,24.0594712 4.81897767,24.0625669 L4.81897767,24.4295853 L5.96874519,23.888173 L5.96874519,22.8077562 C5.96840279,22.8084442 5.96840279,22.8091321 5.967718,22.8098201 M9.72312305,63.9588738 C7.59136231,63.5746568 5.96874519,61.6979443 5.96874519,59.4473341 L5.96874519,20.0449713 C5.72461647,19.8444355 5.41782919,19.7068466 5.07440548,19.6624742 L4.36222071,19.5706336 L4.36222071,21.3217962 C4.36222071,21.4968781 4.45980372,21.6489138 4.60361026,21.7263076 C4.6679808,21.7607048 4.74125366,21.7803112 4.81897767,21.7803112 L4.81897767,59.4566213 C4.82377122,62.3786654 7.01373937,64.7957582 9.83166275,65.1428262 C9.82139085,65.0358508 9.81111896,64.9295634 9.80084706,64.823964 C9.77311294,64.5319315 9.7474332,64.2433388 9.72312305,63.9588738 M37.4918234,37.3037779 C37.4140994,37.1207846 37.3185707,36.9443269 37.2086614,36.7778443 L37.2086614,40.4924004 C37.2624177,40.4119109 37.31275,40.3290136 37.3589735,40.2440869 C37.5209613,39.9468605 37.6363147,39.6249369 37.7017124,39.2940012 C37.8318231,38.6325426 37.762659,37.933591 37.4918234,37.3037779 M5.967718,22.8098201 C5.96121247,22.8252988 5.95402214,22.8407776 5.94683181,22.8562563 C5.94648942,22.8576322 5.94580462,22.8593521 5.94477743,22.860728 C5.93758711,22.8765507 5.93005438,22.8923734 5.92217926,22.9078522 C5.91293456,22.9271146 5.90334745,22.946377 5.89341796,22.9656395 C5.88622763,22.9790544 5.8793797,22.9924693 5.87184697,23.0055403 C5.87047739,23.008636 5.86876541,23.0120757 5.86671103,23.0151715 C5.86123268,23.0254907 5.85541194,23.0361538 5.8492488,23.0468169 C5.84822161,23.0488808 5.84685203,23.0509446 5.84548244,23.0533524 C5.83315617,23.0753666 5.8201451,23.0973809 5.80679164,23.1190511 C5.79378057,23.1410653 5.78008471,23.1623916 5.76604645,23.1837179 C5.75440497,23.2019484 5.74207869,23.2201789 5.72975242,23.2380655 C5.71982292,23.2528563 5.70955102,23.2676471 5.69859433,23.2824379 C5.68558327,23.3013564 5.67154501,23.3199309 5.65750675,23.3385054 C5.64346849,23.3570799 5.62943024,23.3756544 5.61470719,23.3935409 C5.56505969,23.4561439 5.51233063,23.5159951 5.45720479,23.5734384 C5.44487851,23.5865094 5.43220984,23.5992363 5.41954117,23.6119633 C5.3972854,23.6343215 5.37502962,23.6559918 5.35208905,23.6769741 C5.35174666,23.677318 5.35174666,23.677662 5.35140426,23.677662 C5.33223006,23.6958925 5.31237106,23.7137791 5.29285446,23.7309777 C5.23670143,23.7801657 5.17849402,23.826602 5.11857463,23.8709744 C5.09597646,23.887829 5.07269349,23.9043397 5.04941053,23.9201624 C5.04667136,23.9222263 5.04427458,23.9239461 5.04119301,23.92601 C5.02167641,23.9397688 5.00147502,23.9528398 4.98127362,23.9659107 C4.95833305,23.9803576 4.93539249,23.9948044 4.91176713,24.0089073 C4.90115284,24.0154427 4.89088094,24.0219782 4.88026665,24.0278257 C4.8655436,24.036425 4.85082055,24.0450243 4.8357551,24.0529357 C4.83027676,24.0563754 4.82479841,24.0594712 4.81897767,24.0625669 L4.81897767,30.8577383 C4.91313671,31.270849 5.00695336,31.6953107 5.07680225,32.0410028 C5.20143458,32.0588893 5.27470744,32.0729922 5.27470744,32.0729922 C5.49315642,32.9611285 5.72769804,33.8454811 5.96874519,34.7284578 L5.96874519,22.8077562 C5.96840279,22.8084442 5.96840279,22.8091321 5.967718,22.8098201 M5.967718,22.8098201 C5.96121247,22.8252988 5.95402214,22.8407776 5.94683181,22.8562563 C5.94648942,22.8576322 5.94580462,22.8593521 5.94477743,22.860728 C5.93758711,22.8765507 5.93005438,22.8923734 5.92217926,22.9078522 C5.90608663,22.9408735 5.8893092,22.9732069 5.87184697,23.0055403 C5.87047739,23.008636 5.86876541,23.0120757 5.86671103,23.0151715 C5.86123268,23.0254907 5.85541194,23.0361538 5.8492488,23.0468169 C5.84822161,23.0488808 5.84685203,23.0509446 5.84548244,23.0533524 C5.83281377,23.0757106 5.8198027,23.0973809 5.80679164,23.1190511 C5.79343817,23.1410653 5.77974231,23.1623916 5.76604645,23.1837179 C5.75440497,23.2019484 5.74207869,23.2201789 5.72975242,23.2380655 C5.71982292,23.2528563 5.70955102,23.2676471 5.69859433,23.2824379 C5.68524087,23.3013564 5.67154501,23.3199309 5.65750675,23.3385054 C5.64346849,23.3570799 5.62908784,23.3756544 5.61470719,23.3935409 C5.56505969,23.4561439 5.51233063,23.5159951 5.45720479,23.5734384 C5.44487851,23.5865094 5.43220984,23.5992363 5.41954117,23.6119633 C5.3972854,23.6339775 5.37502962,23.6556478 5.35208905,23.6769741 C5.35174666,23.677318 5.35174666,23.677662 5.35140426,23.677662 C5.33223006,23.6958925 5.31271345,23.7134351 5.29285446,23.7309777 C5.23670143,23.7801657 5.17849402,23.826602 5.11857463,23.8709744 C5.09563406,23.887829 5.07269349,23.9043397 5.04941053,23.9201624 C5.04667136,23.9222263 5.04427458,23.9239461 5.04119301,23.92601 C5.02133401,23.9397688 5.00147502,23.9528398 4.98127362,23.9659107 C4.95833305,23.9803576 4.93539249,23.9948044 4.91176713,24.0089073 C4.90115284,24.0154427 4.89088094,24.0219782 4.88026665,24.0278257 C4.8655436,24.036425 4.85082055,24.0450243 4.8357551,24.0529357 C4.83027676,24.0563754 4.82479841,24.0594712 4.81897767,24.0625669 L4.81897767,24.4295853 L5.96874519,23.888173 L5.96874519,22.8077562 C5.96840279,22.8084442 5.96840279,22.8091321 5.967718,22.8098201" id="Fill-10" fill="#2D82B7"></path>
                    <path d="M17.7250428,14.8165797 C17.7250428,14.8165797 15.7833463,17.3974377 16.6496438,23.5494154 C16.6496438,23.5494154 20.7618602,24.9005039 19.8408821,22.0342521 C18.9199381,19.1680003 19.81801,15.6670854 19.81801,15.6670854 L17.7250428,14.8165797 Z" id="Fill-12" fill="#254B62"></path>
                    <path d="M23.998223,14.8465947 C23.998223,14.8465947 26.0892728,16.8272556 25.0590016,23.549436 C25.0590016,23.549436 20.9468194,24.9005246 21.8677633,22.0342728 C22.7887415,19.168021 21.8906354,15.6670716 21.8906354,15.6670716 L23.998223,14.8465947 Z" id="Fill-14" fill="#254B62"></path>
                    <path d="M18.6798257,23.9791743 C18.6798257,23.9791743 20.5039432,22.707165 23.3499773,23.9791743 L23.4555382,25.4031505 L18.6049436,25.2857184 L18.6798257,23.9791743 Z" id="Fill-16" fill="#DCEFEE"></path>
                    <path d="M29.5105057,45.7694607 L28.4914994,53.6791021 L28.3124602,55.549967 L28.0878481,57.8992974 L27.446197,63.4933177 C27.4448274,63.4998532 27.4438003,63.5060447 27.4427731,63.5125458 C27.3386503,64.0670634 27.2489766,64.6239544 27.1739918,65.1829093 L22.6067646,65.1829093 C22.5030184,64.0615254 22.3547607,62.9439941 22.1619915,61.8329638 L21.584711,56.3572699 L21.584711,53.5167472 L22.1256975,52.2994295 L22.1256975,50.1891255 L21.3813274,47.9601854 L20.6034025,45.6314934 L20.593473,45.6019462 L21.380985,45.6170466 L21.5316395,45.6197984 L22.1589099,45.6314934 L22.7755661,45.6431885 L29.5105057,45.7694607 Z" id="Fill-18" fill="#254B62"></path>
                    <path d="M22.1688257,45.6019428 L22.1588962,45.63149 L21.3813137,47.9602164 L20.6366013,50.189122 L20.6366013,52.299426 L21.1775878,53.5167438 L21.1775878,56.3572664 L20.6003073,61.8329603 C20.4075723,62.9439906 20.2592803,64.061522 20.1555342,65.1829059 L15.5883412,65.1829059 C15.5136645,64.623951 15.4239567,64.0670599 15.3195257,63.5125423 C15.3184985,63.5060412 15.3174713,63.4998497 15.3161018,63.4933143 L14.6744507,57.8992939 L14.4522353,55.5785133 L14.2704228,53.6790986 L13.2517931,45.7694572 L19.2536618,45.6569783 L20.6033888,45.63149 L21.2303169,45.6198293 L21.3809713,45.6170432 L22.1688257,45.6019428 Z" id="Fill-20" fill="#254B62"></path>
                    <path d="M17.27575,19.0355642 C17.27575,19.0355642 16.5637707,18.5040239 17.1085236,20.1900381 C17.6532764,21.876018 18.2130605,19.4469893 17.8772038,20.12716 C17.5413128,20.8072963 17.27575,19.0355642 17.27575,19.0355642" id="Fill-22" fill="#FFD9A8"></path>
                    <path d="M24.4989779,19.0355642 C24.4989779,19.0355642 25.2109914,18.5040239 24.6662386,20.1900381 C24.1214515,21.876018 23.5616674,19.4469893 23.8975584,20.12716 C24.2334151,20.8072963 24.4989779,19.0355642 24.4989779,19.0355642" id="Fill-24" fill="#FFD9A8"></path>
                    <path d="M22.7220837,26.3800695 L22.3026822,26.3573673 L21.9678527,26.3394808 L18.5079701,26.1543893 C18.5079701,26.1543893 18.8533112,25.6922282 18.9682879,25.518763 C19.0143745,25.4492119 19.1059314,24.939961 19.1996795,24.3516653 C19.2290571,24.1627901 19.259462,23.9666228 19.2882917,23.7742047 C19.297468,23.7128056 19.30661,23.6521633 19.3155123,23.5921058 C19.3397539,23.4286502 19.3626603,23.2714549 19.3831356,23.1272273 C19.4334679,22.7792306 19.470926,22.509178 19.482499,22.4247328 C19.4849301,22.4066399 19.4862654,22.3971463 19.4862654,22.3971463 C19.4862654,22.3971463 19.4997558,22.3909204 19.524785,22.3792941 C19.5956611,22.346548 19.7588815,22.2721124 19.9740777,22.1804094 C20.0753586,22.1376536 20.1882125,22.090839 20.3083595,22.0424077 C21.0857365,21.7306657 22.169353,21.3664335 22.416084,21.6399946 C22.4683337,21.6979195 22.4828855,21.7845317 22.4494676,21.9060227 C22.3729762,22.1823012 22.4023539,22.6290523 22.4858644,23.1364114 C22.5009298,23.2268073 22.5176388,23.3188199 22.5356831,23.4118987 C22.5868713,23.6778925 22.6501805,23.954171 22.7183174,24.2266658 C22.9827844,25.2838988 23.325181,26.2850988 23.3661316,26.4030812 L22.7220837,26.3800695 Z" id="Fill-26" fill="#F2CEA0"></path>
                    <path d="M28.7347961,55.579559 C28.6104034,55.4684903 15.7580364,55.5073936 13.8508877,55.5975831 C13.8508877,55.5975831 12.1453079,47.9681415 13.8508877,38.2663704 C14.3859165,35.2228697 17.4498176,26.4445609 17.4498176,26.4445609 L17.4883714,26.3179791 C17.3740795,26.1313053 18.8751801,24.3135497 19.1997377,24.3514554 C19.3866177,24.3741576 19.5795924,24.3891204 19.7770867,24.3984764 L19.7773607,24.3984764 C19.9498943,24.407007 20.1253382,24.4104811 20.3015697,24.4099307 C20.9504454,24.4094148 21.6088739,24.3578533 22.1750608,24.2938057 C22.3683436,24.2724106 22.5506698,24.2491925 22.7181359,24.2267655 C23.3446873,24.1404973 24.6276471,26.4806091 24.5380761,26.5852799 C24.537631,26.5857615 24.6074457,26.8512736 24.6070348,26.8517552 C24.5666662,26.8989826 24.8490407,27.2400998 24.8714676,27.2981623 L24.6543882,28.2610094 L28.9487596,39.3756808 C28.9487596,39.3756808 28.5361034,38.3077502 28.5362061,38.3079222 C30.8174571,43.7475679 29.0304212,55.8420786 28.7347961,55.579559" id="Fill-28" fill="#FF9900"></path>
                    <path d="M24.6070451,19.0628412 C24.6070451,19.3293852 24.5687994,19.5991627 24.4998407,19.8689745 L24.4998407,19.8692152 C24.4222879,20.1739058 24.3059073,20.4783557 24.1617926,20.7778867 C23.9675853,21.1824324 23.7230115,21.5777941 23.4555313,21.9514855 C23.1482304,22.3814508 22.8109699,22.7830384 22.4858644,23.1369514 C22.3581847,23.276329 22.2323882,23.4083455 22.1109059,23.5317627 C21.4649749,24.1885089 20.4131328,24.1885089 19.7675099,23.5317627 C19.6430488,23.4054217 19.5143077,23.2701031 19.3831356,23.127217 C19.2931538,23.0289785 19.2021105,22.927266 19.1113412,22.8219761 C18.5780244,22.2055778 18.0438858,21.4790053 17.6899163,20.721888 C17.5579567,20.4404499 17.4510262,20.1547122 17.378267,19.8689745 L17.378267,19.8686993 C17.3093426,19.5988875 17.2710969,19.3293852 17.2710969,19.0628412 L17.2710969,19.032262 C17.2761986,18.0039914 17.5364199,17.053665 17.9746532,16.2808282 C18.0918213,16.074376 18.221932,15.8803757 18.3630679,15.7009598 C19.0253997,14.8596725 19.9350445,14.3403776 20.9391908,14.3403776 C22.9424159,14.3403776 24.5706826,16.4083043 24.6064972,18.9768137 C24.6067712,19.005501 24.6070451,19.0341883 24.6070451,19.0628412" id="Fill-30" fill="#FFD9A8"></path>
                    <path d="M24.3268106,15.2967477 C23.2143986,13.4855275 20.9856369,12.7483263 18.5913265,14.0363303 C16.2513887,15.2950966 17.0883427,19.6750326 17.3788319,19.8693769 L18.0145938,16.7110239 L18.0162715,16.7110239 L18.0721164,17.2890692 L23.4616431,17.2890692 L23.4809885,16.7110239 L23.5000258,16.7110239 L24.4997551,19.8693769 C24.4997551,19.8693769 25.4392569,17.1079335 24.3268106,15.2967477" id="Fill-32" fill="#254B62"></path>
                    <g id="Group-36" transform="translate(0.000000, 42.002105)">
                        <mask id="mask-4" fill="white">
                            <use xlink:href="#path-3"></use>
                        </mask>
                        <g id="Clip-35"></g>
                        <path d="M9.28035641,0.0219557473 C6.34820956,0.981500676 5.25192438,3.13449165 4.1511538,4.17139593 C3.99721232,4.31638023 3.84327085,4.43948789 3.68419342,4.53421784 C3.37114028,4.72106355 3.00422817,4.9124841 2.65268966,5.11160962 C2.1818602,5.37904803 1.73859367,5.66127724 1.48970563,5.97061147 C0.363289557,7.36903056 0.663502828,7.5790944 1.15039068,7.15958587 C1.63659374,6.74007734 2.26845228,6.4062523 2.26845228,6.4062523 C1.58208422,7.36514368 -1.23268911,10.5666652 0.623065799,10.1799716 C2.3319326,9.82299724 3.44297507,8.73325882 4.1210229,7.7724068 C4.57966305,7.12219609 4.84008984,6.53063265 4.95301221,6.26512049 C5.09541493,5.93064189 5.4899242,5.57428667 5.84399644,5.30492201 C6.18656416,5.04460383 6.49061227,4.8654287 6.49061227,4.8654287 C6.49061227,4.8654287 10.4042388,-0.345991346 9.28035641,0.0219557473" id="Fill-34" fill="#FFD9A8" mask="url(#mask-4)"></path>
                    </g>
                    <path d="M18.6798257,25.3322372 C18.6798257,25.3322372 18.6791752,25.6538169 18.6778741,26.186733 C18.6778741,26.3439971 18.6772578,26.519251 18.6766414,26.7106715 C18.6740735,28.2018599 18.6669859,30.6371489 18.6560976,32.6580546 C18.6457915,34.5371404 18.631719,36.0586672 18.6130926,36.1307982 C18.5913162,36.2145898 17.652191,36.9821294 16.5918575,37.8276132 C15.671975,38.5622347 14.6603645,39.3548499 14.0779138,39.8098219 C13.7764336,40.0456837 13.589759,40.1907024 13.589759,40.1907024 L6.50663643,47.3753535 C6.37707359,47.5067853 6.17307374,47.5274236 6.01978282,47.4249543 L5.84399644,47.3070406 L4.1511538,46.1734801 L4.11653751,46.1502964 C3.93434832,46.0278767 3.89007645,45.7778089 4.01967353,45.5999753 L9.61905505,37.9352077 C10.1617535,37.1367793 10.7942284,36.5142584 11.1470338,35.615287 C12.0546927,33.3063046 13.5057349,28.3139949 14.9432525,27.4955818 C15.6039751,27.1192073 16.2505566,26.7467542 16.8163669,26.4187423 C17.2050897,26.1944724 17.5546765,25.9908064 17.843351,25.8220193 C17.8574578,25.8142799 17.8709139,25.805887 17.8844044,25.7981476 C18.3757434,25.511378 18.6798257,25.3322372 18.6798257,25.3322372" id="Fill-37" fill="#FFFFFF"></path>
                    <g id="Group-41" transform="translate(33.178223, 42.208488)">
                        <mask id="mask-6" fill="white">
                            <use xlink:href="#path-5"></use>
                        </mask>
                        <g id="Clip-40"></g>
                        <path d="M8.35731017,7.1661867 C8.84419803,7.58576402 9.1444113,7.37563139 8.01796098,5.97728109 C7.76910719,5.66794686 7.32584065,5.38568325 6.85501119,5.11821045 C6.50350693,4.91908493 6.13656057,4.72773317 5.82350743,4.54085306 C5.66443001,4.44608871 5.51048853,4.32301545 5.35654706,4.17799676 C4.25577648,3.14116127 3.1594913,0.9881359 0.227344443,0.0285909716 C-0.8965379,-0.339356121 3.01705434,4.87206392 3.01705434,4.87206392 C3.01705434,4.87206392 3.32113669,5.05120466 3.66367017,5.31155724 C4.01777666,5.58092189 4.41228593,5.93731152 4.55468864,6.27175571 C4.66761102,6.53726788 4.92803781,7.12879692 5.38667795,7.77907642 C6.06469154,8.73985965 7.17576826,9.82959806 8.88463506,10.1866412 C10.74039,10.573266 7.92561664,7.3717789 7.23924857,6.41288752 C7.23924857,6.41288752 7.87107287,6.74671257 8.35731017,7.1661867 Z" id="Fill-39" fill="#FFD9A8" mask="url(#mask-6)"></path>
                    </g>
                    <path d="M24.006081,25.5452558 C24.006081,25.5452558 24.0067315,25.8668354 24.0080326,26.3997516 C24.0080326,26.5570157 24.0086489,26.7322695 24.0092995,26.9236901 C24.0118675,28.4148785 24.0189208,30.8501331 24.029809,32.8710387 C24.0401152,34.7501934 24.0541877,36.2716514 24.072814,36.3438511 C24.0946247,36.4276428 25.0337499,37.1951136 26.0940492,38.0405973 C27.0139659,38.7752532 28.0255765,39.5678684 28.6079929,40.0228405 C28.9095073,40.2587023 29.0961477,40.4036865 29.0961477,40.4036865 L36.1792703,47.5883721 C36.3088331,47.7198383 36.512833,47.7404422 36.6661239,47.6380073 L36.8419103,47.5200592 L38.5347529,46.3865331 L38.5694034,46.363315 C38.7515584,46.2408953 38.7958302,45.9908619 38.6662674,45.8129938 L33.0668516,38.1482262 C32.5241532,37.3497979 31.8917125,36.727277 31.5388729,35.8283399 C30.631214,33.5193576 29.180206,28.5270134 27.7426542,27.7086003 C27.0819659,27.3322603 26.43535,26.9597728 25.869574,26.6317609 C25.4808513,26.407491 25.1312302,26.2038594 24.8425899,26.0350378 C24.8284489,26.0272985 24.8149927,26.0189399 24.8015023,26.0111662 C24.3101633,25.7243965 24.006081,25.5452558 24.006081,25.5452558" id="Fill-42" fill="#FFFFFF"></path>
                    <path d="M18.6798257,23.9791743 L19.6042621,25.6771588 L19.3842039,42.531798 L18.5165368,63.3078582 C18.5117433,63.4222978 18.4179951,63.5126249 18.3039771,63.5126249 L14.0149813,63.5126249 C13.9154124,63.5126249 13.8285464,63.4450343 13.8039281,63.3481374 C13.3450825,61.54132 9.46555869,45.1292699 15.2769521,27.9797089 L17.660477,25.9288433 L18.6798257,23.9791743 Z" id="Fill-44" fill="#FFFFFF"></path>
                    <path d="M23.3499773,23.9791743 L22.4255752,25.6771588 L22.6455992,42.531798 L23.5131635,63.3042809 C23.5179913,63.4207155 23.6133487,63.5126249 23.7293527,63.5126249 L28.0614904,63.5126249 C28.1333937,63.5126249 28.1961892,63.4639184 28.214165,63.3939545 C28.6130912,61.8408854 32.6173158,45.2858117 26.7528509,27.9797089 L24.369326,25.9288433 L23.3499773,23.9791743 Z" id="Fill-46" fill="#FFFFFF"></path>
                </g>
            </g>
        </g>
    </g>
</svg>