<svg xmlns="http://www.w3.org/2000/svg" viewBox="0 0 113 22.62"><defs><style>.cls-1{fill:none;stroke:#ffdc64;stroke-width:0.65px;}.cls-2{fill:#ffdc64;}.cls-3{fill:#ffc850;}.cls-4{isolation:isolate;}.cls-5{fill:#ffc707;}</style></defs><g id="Capa_2" data-name="Capa 2"><g id="Capa_1-2" data-name="Capa 1"><g id="Presencial"><g id="step-1"><g id="Group-4"><rect id="Rectangle" class="cls-1" x="0.32" y="0.32" width="112.35" height="21.98" rx="10.99"/><g id="star-_1_" data-name="star-(1)"><path id="Path" class="cls-2" d="M21.38,8.34,16.62,7.9,14.73,3.51a.38.38,0,0,0-.7,0L12.14,7.9l-4.75.44A.38.38,0,0,0,7.17,9l3.59,3.15-1,4.66a.38.38,0,0,0,.57.41l4.1-2.44,4.11,2.44a.38.38,0,0,0,.57-.41l-1-4.66L21.6,9A.39.39,0,0,0,21.38,8.34Z"/><path id="Path-2" data-name="Path" class="cls-3" d="M15.42,5.11l-.69-1.6a.38.38,0,0,0-.7,0L12.14,7.9l-4.75.44A.38.38,0,0,0,7.17,9l3.59,3.15-1,4.66a.38.38,0,0,0,.57.41l.54-.32A29.63,29.63,0,0,1,15.42,5.11Z"/></g><g id="Am-beliebtesten" class="cls-4"><g class="cls-4"><path class="cls-5" d="M32.89,14.34l-.42-1.26h-2.8l-.42,1.26H27.76l2.46-7h1.71l2.46,7Zm-2.77-2.55H32l-1-2.86Z"/><path class="cls-5" d="M42.43,11.26v3.08H41.14v-3c0-.6-.31-.95-.84-.95s-.93.4-.93,1.13v2.81H38.08v-3c0-.6-.31-.95-.84-.95s-.94.4-.94,1.13v2.81H35v-5H36.3v.53a1.55,1.55,0,0,1,1.39-.67,1.48,1.48,0,0,1,1.36.72,1.69,1.69,0,0,1,1.49-.72A1.86,1.86,0,0,1,42.43,11.26Z"/><path class="cls-5" d="M50.66,10a2.62,2.62,0,0,1,.72,1.87,2.65,2.65,0,0,1-.72,1.88,2.26,2.26,0,0,1-1.72.76,1.93,1.93,0,0,1-1.62-.73v.59H46v-7h1.29v2.6a1.93,1.93,0,0,1,1.62-.73A2.27,2.27,0,0,1,50.66,10Zm-2,3.28a1.34,1.34,0,0,0,1-.39,1.38,1.38,0,0,0,.4-1,1.34,1.34,0,0,0-.4-1,1.43,1.43,0,0,0-2,0,1.37,1.37,0,0,0-.39,1,1.41,1.41,0,0,0,.39,1A1.34,1.34,0,0,0,48.7,13.25Z"/><path class="cls-5" d="M53.38,12.37a1.27,1.27,0,0,0,1.41.94,1.35,1.35,0,0,0,1.13-.5l1,.6a2.5,2.5,0,0,1-2.19,1.07,2.68,2.68,0,0,1-2-.75A2.56,2.56,0,0,1,52,11.84,2.59,2.59,0,0,1,52.77,10a2.52,2.52,0,0,1,1.9-.76,2.38,2.38,0,0,1,1.82.76,2.63,2.63,0,0,1,.72,1.88,3.38,3.38,0,0,1-.05.53Zm2.54-1a1.22,1.22,0,0,0-1.25-1,1.25,1.25,0,0,0-1.31,1Z"/><path class="cls-5" d="M58.1,14.34V7h1.29v7.31Z"/><path class="cls-5" d="M60.42,7.94a.8.8,0,1,1,.79.8A.81.81,0,0,1,60.42,7.94Zm.15,6.4v-5h1.3v5Z"/><path class="cls-5" d="M64.14,12.37a1.27,1.27,0,0,0,1.41.94,1.33,1.33,0,0,0,1.12-.5l1,.6a2.48,2.48,0,0,1-2.18,1.07,2.68,2.68,0,0,1-2-.75,2.57,2.57,0,0,1-.76-1.89A2.6,2.6,0,0,1,63.53,10a2.52,2.52,0,0,1,1.9-.76,2.36,2.36,0,0,1,1.81.76A2.63,2.63,0,0,1,68,11.84a3.38,3.38,0,0,1,0,.53Zm2.53-1a1.21,1.21,0,0,0-1.24-1,1.25,1.25,0,0,0-1.31,1Z"/><path class="cls-5" d="M73.49,10a2.62,2.62,0,0,1,.72,1.87,2.65,2.65,0,0,1-.72,1.88,2.26,2.26,0,0,1-1.72.76,1.93,1.93,0,0,1-1.62-.73v.59H68.86v-7h1.29v2.6a1.93,1.93,0,0,1,1.62-.73A2.27,2.27,0,0,1,73.49,10Zm-2,3.28a1.34,1.34,0,0,0,1-.39,1.38,1.38,0,0,0,.4-1,1.34,1.34,0,0,0-.4-1,1.43,1.43,0,0,0-2,0,1.37,1.37,0,0,0-.39,1,1.41,1.41,0,0,0,.39,1A1.34,1.34,0,0,0,71.53,13.25Z"/><path class="cls-5" d="M77.87,10.58H76.74v2.08c0,.54.39.55,1.13.51v1.17c-1.77.2-2.42-.31-2.42-1.68V10.58h-.87V9.34h.87v-1l1.29-.4V9.34h1.13Z"/><path class="cls-5" d="M79.72,12.37a1.27,1.27,0,0,0,1.41.94,1.33,1.33,0,0,0,1.12-.5l1,.6a2.48,2.48,0,0,1-2.18,1.07,2.68,2.68,0,0,1-2-.75,2.56,2.56,0,0,1-.75-1.89A2.59,2.59,0,0,1,79.11,10,2.52,2.52,0,0,1,81,9.2a2.36,2.36,0,0,1,1.81.76,2.63,2.63,0,0,1,.72,1.88,3.32,3.32,0,0,1,0,.53Zm2.53-1a1.21,1.21,0,0,0-1.24-1,1.25,1.25,0,0,0-1.31,1Z"/><path class="cls-5" d="M86.34,11.31c.74.15,1.69.5,1.68,1.57a1.38,1.38,0,0,1-.58,1.19,2.47,2.47,0,0,1-1.44.41,2.1,2.1,0,0,1-2.1-1.19L85,12.66a.93.93,0,0,0,1,.65c.46,0,.69-.14.69-.43s-.4-.42-.91-.55c-.74-.19-1.67-.5-1.67-1.54a1.39,1.39,0,0,1,.54-1.16,2.29,2.29,0,0,1,3.27.63l-1.11.6a.83.83,0,0,0-.8-.51c-.33,0-.58.16-.58.41S85.83,11.18,86.34,11.31Z"/><path class="cls-5" d="M91.56,10.58H90.43v2.08c0,.54.39.55,1.13.51v1.17c-1.77.2-2.43-.31-2.43-1.68V10.58h-.87V9.34h.87v-1l1.3-.4V9.34h1.13Z"/><path class="cls-5" d="M93.41,12.37a1.27,1.27,0,0,0,1.41.94,1.33,1.33,0,0,0,1.12-.5l1,.6a2.48,2.48,0,0,1-2.18,1.07,2.68,2.68,0,0,1-2-.75,2.57,2.57,0,0,1-.76-1.89A2.6,2.6,0,0,1,92.8,10a2.52,2.52,0,0,1,1.9-.76,2.36,2.36,0,0,1,1.81.76,2.63,2.63,0,0,1,.72,1.88,3.38,3.38,0,0,1,0,.53Zm2.53-1a1.21,1.21,0,0,0-1.24-1,1.25,1.25,0,0,0-1.31,1Z"/><path class="cls-5" d="M102.26,9.75a2.08,2.08,0,0,1,.54,1.52v3.07h-1.29V11.43a.93.93,0,0,0-1-1c-.67,0-1.1.41-1.1,1.24v2.7H98.13v-5h1.29V9.9a1.65,1.65,0,0,1,1.49-.7A1.77,1.77,0,0,1,102.26,9.75Z"/></g></g></g></g></g></g></g></svg>