<?xml version="1.0" encoding="UTF-8"?>
<svg width="98px" height="23px" viewBox="0 0 98 23" version="1.1" xmlns="http://www.w3.org/2000/svg" xmlns:xlink="http://www.w3.org/1999/xlink">
    <title>Group 5</title>
    <g id="Nuevos-cambios" stroke="none" stroke-width="1" fill="none" fill-rule="evenodd">
        <g id="step-1" transform="translate(-165.000000, -247.000000)">
            <g id="Group-6" transform="translate(165.000000, 247.000000)">
                <rect id="Rectangle" stroke="#FFDC64" stroke-width="0.64638" x="0.32319" y="0.32319" width="97.08012" height="21.97692" rx="10.98846"></rect>
                <g id="star-(1)" transform="translate(6.925500, 3.078000)" fill-rule="nonzero">
                    <path d="M14.4558786,5.26202559 L9.69879574,4.82082315 L7.8091375,0.432879209 C7.67681945,0.125631008 7.2412014,0.125631008 7.10891892,0.432879209 L5.21926067,4.82078758 L0.462177829,5.26202559 C0.129070697,5.29289981 -0.00552379111,5.7072118 0.245773794,5.92799087 L3.83500758,9.08107307 L2.78460857,13.7416918 C2.71105112,14.0680407 3.06350799,14.324069 3.3511219,14.1533005 L7.45902821,11.7140955 L11.5669345,14.1533005 C11.854584,14.3241046 12.2069697,14.0680407 12.1334478,13.7416918 L11.0830133,9.08107307 L14.6722826,5.92799087 C14.9235802,5.7072118 14.7889501,5.29289981 14.4558786,5.26202559 Z" id="Path" fill="#FFDC64"></path>
                    <path d="M8.49626655,2.02852106 L7.80910193,0.432879209 C7.67678388,0.125631008 7.24116583,0.125631008 7.10888335,0.432879209 L5.21922511,4.82078758 L0.462177829,5.26202559 C0.129070697,5.29289981 -0.00552379111,5.7072118 0.245773794,5.92799087 L3.83500758,9.08107307 L2.78460857,13.7416918 C2.71105112,14.0680407 3.06350799,14.324069 3.3511219,14.1533005 L3.89785865,13.8286589 C4.79417116,8.02658358 7.31397633,3.76743632 8.49626655,2.02852106 Z" id="Path" fill="#FFC850"></path>
                </g>
                <text id="Most-popular" font-family="Gilroy-Bold, Gilroy" font-size="10.0035" font-weight="bold" fill="#FFC707">
                    <tspan x="27.73278" y="14.34068">Most popular</tspan>
                </text>
            </g>
        </g>
    </g>
</svg>