<?xml version="1.0" encoding="UTF-8"?>
<svg width="18px" height="18px" viewBox="0 0 18 18" version="1.1" xmlns="http://www.w3.org/2000/svg" xmlns:xlink="http://www.w3.org/1999/xlink">
    <title>call (1)</title>
    <g id="Nuevos-cambios" stroke="none" stroke-width="1" fill="none" fill-rule="evenodd">
        <g id="tipo-de-cita" transform="translate(-230.000000, -20.000000)" fill="#FFFFFF" fill-rule="nonzero" stroke="#FFFFFF">
            <g id="call-(1)" transform="translate(231.000000, 21.000000)">
                <path d="M15.7968835,12.5148355 L12.5133782,10.3251139 C12.0966912,10.0494662 11.5381411,10.1401661 11.2300848,10.5335366 L10.2736339,11.7632909 C10.1507155,11.9253658 9.92727648,11.9723789 9.74945664,11.8736006 L9.5675184,11.7733018 C8.96439456,11.4445584 8.21395872,11.0352845 6.70196736,9.52275456 C5.189976,8.01022464 4.7798784,7.25921856 4.45113504,6.65720352 L4.35137472,6.47526528 C4.25123424,6.29747712 4.29736032,6.07308768 4.45949856,5.9491872 L5.68842912,4.99302144 C6.08164128,4.68493344 6.17246784,4.12654176 5.89713696,3.709728 L3.70741536,0.42622272 C3.4252416,0.00177408 2.85912,-0.12564288 2.42228448,0.13695264 L1.0492416,0.96174144 C0.61782336,1.21537152 0.30130848,1.6261344 0.16606656,2.10795552 C-0.3283632,3.9094704 0.04359168,7.01860896 4.62363264,11.5991885 C8.26695936,15.2422301 10.9792426,16.221978 12.8434838,16.221978 C13.2725261,16.2237715 13.6998893,16.1679514 14.1140736,16.0559626 C14.5959898,15.920879 15.006816,15.6043325 15.2602877,15.1727875 L16.0859002,13.8005683 C16.3488758,13.3636378 16.2215222,12.7971677 15.7968835,12.5148355 Z M15.6200774,13.5231782 L14.7963658,14.8962211 C14.6143642,15.2076989 14.3188848,15.4367136 13.9718304,15.5353018 C12.3087254,15.9919056 9.40316256,15.6137098 5.00613696,11.2166842 C0.60911136,6.81965856 0.2309472,3.91434912 0.68755104,2.25099072 C0.78626592,1.90352448 1.01556576,1.60766496 1.32742368,1.42537824 L2.70046656,0.60166656 C2.890008,0.48761856 3.13571808,0.54290016 3.25816128,0.72708768 L4.44765024,2.51292096 L5.44601376,4.01030784 C5.56557408,4.1911056 5.52629088,4.43342592 5.35572576,4.56721056 L4.12651008,5.52337632 C3.75243264,5.80941504 3.64560768,6.3269712 3.87592128,6.73773408 L3.97352736,6.91507872 C4.31902944,7.54874208 4.74857856,8.33703552 6.31680192,9.90500544 C7.88502528,11.4729437 8.67306528,11.9025245 9.30644352,12.2479949 L9.4840416,12.3458544 C9.8947728,12.5761363 10.4123606,12.469343 10.6983994,12.0952656 L11.6545651,10.8660499 C11.7883814,10.6955798 12.0306067,10.6563283 12.2114678,10.7757619 L15.494688,12.9654835 C15.6790022,13.0878317 15.7342838,13.3336685 15.6200774,13.5231782 Z" id="Shape" stroke-width="0.5"></path>
                <path d="M9.19230048,2.7051552 C11.7292666,2.70797472 13.7851718,4.76391168 13.788023,7.30087776 C13.788023,7.4501856 13.9090406,7.5712032 14.0583485,7.5712032 C14.2076563,7.5712032 14.3286739,7.4501856 14.3286739,7.30087776 C14.3255376,4.46542272 12.0277555,2.16760896 9.19230048,2.16450432 C9.04299264,2.16450432 8.92197504,2.28552192 8.92197504,2.43482976 C8.92197504,2.5841376 9.04299264,2.7051552 9.19230048,2.7051552 Z" id="Path" stroke-width="0.2"></path>
                <path d="M9.19230048,4.3271712 C10.8338314,4.32910368 12.1640746,5.65934688 12.166007,7.30087776 C12.166007,7.4501856 12.2870563,7.5712032 12.4363325,7.5712032 C12.5856403,7.5712032 12.7066579,7.4501856 12.7066579,7.30087776 C12.7044086,5.36085792 11.1322886,3.78873792 9.19230048,3.78652032 C9.04299264,3.78652032 8.92197504,3.90753792 8.92197504,4.05684576 C8.92197504,4.2061536 9.04299264,4.3271712 9.19230048,4.3271712 Z" id="Path" stroke-width="0.2"></path>
                <path d="M9.19230048,5.9491872 C9.93842784,5.95007424 10.5430723,6.55471872 10.543991,7.30087776 C10.543991,7.4501856 10.6650403,7.5712032 10.8143165,7.5712032 C10.9635926,7.5712032 11.0846419,7.4501856 11.0846419,7.30087776 C11.0834381,6.25626144 10.2369168,5.40970848 9.19230048,5.40853632 C9.04299264,5.40853632 8.92197504,5.52955392 8.92197504,5.67886176 C8.92197504,5.8281696 9.04299264,5.9491872 9.19230048,5.9491872 Z" id="Path" stroke-width="0.2"></path>
            </g>
        </g>
    </g>
</svg>