<?xml version="1.0" encoding="UTF-8"?>
<svg width="30px" height="30px" viewBox="0 0 30 30" version="1.1" xmlns="http://www.w3.org/2000/svg" xmlns:xlink="http://www.w3.org/1999/xlink">
    <title>Group 4</title>
    <g id="Presencial" stroke="none" stroke-width="1" fill="none" fill-rule="evenodd">
        <g id="tipo-de-cita-select" transform="translate(-337.000000, -182.000000)">
            <g id="Group-4" transform="translate(337.000000, 182.000000)">
                <circle id="Oval-Copy-4" fill="#FFFFFF" cx="15" cy="15" r="15"></circle>
                <g id="Group-5-Copy-2" transform="translate(4.000000, 4.000000)" fill="#FF9900" stroke="#FF9900" stroke-width="0.5">
                    <path d="M0,10.584 C0,4.7479824 4.7479824,0 10.584,0 C12.4409628,0 14.2677612,0.4877901 15.8668713,1.4108472 C16.0834464,1.5358707 16.1580636,1.8139653 16.0329078,2.0306727 C15.9519402,2.1701169 15.8004567,2.257038 15.63786,2.257038 C15.5590092,2.257038 15.4813491,2.2361346 15.4130823,2.1967092 C13.9520934,1.3532967 12.2822028,0.9073134 10.584,0.9073134 C5.2482087,0.9073134 0.9074457,5.2482087 0.9074457,10.584 C0.9074457,15.919659 5.2482087,20.2606866 10.584,20.2606866 C15.9197913,20.2606866 20.2606866,15.919659 20.2606866,10.584 C20.2606866,10.1512467 20.2317129,9.716112 20.1749562,9.2908998 C20.0748051,8.5404942 19.8869391,7.8050385 19.6165179,7.1049069 C19.4360607,6.6378879 19.2189564,6.1838343 18.9711585,5.7549177 C18.9105651,5.6498715 18.8944245,5.5276263 18.9257796,5.4105408 C18.957267,5.2935876 19.0322811,5.1956856 19.1373273,5.1349599 C19.2063879,5.0951376 19.2843126,5.0741019 19.3631634,5.0741019 C19.5253632,5.0741019 19.6764498,5.1611553 19.7571528,5.301261 C20.0290293,5.7718521 20.2663755,6.2687709 20.4627087,6.7778613 C20.7597222,7.5470535 20.9654487,8.3522313 21.0743316,9.1707714 C21.1365126,9.6355413 21.168,10.1107629 21.168,10.584 C21.168,16.4200176 16.4200176,21.168 10.584,21.168 C4.7479824,21.168 0,16.4200176 0,10.584 Z" id="Fill-1"></path>
                    <path d="M8.91245565,14.2815336 L6.21115425,11.5800999 C6.03440145,11.4032148 6.03440145,11.11533 6.21115425,10.9385772 C6.29688465,10.8528468 6.41079495,10.805748 6.53198175,10.805748 C6.65303625,10.805748 6.76694655,10.8528468 6.85267695,10.9385772 L9.07650765,13.1624079 C9.11990205,13.20567 9.17652645,13.2273672 9.23328315,13.2273672 C9.29003985,13.2273672 9.34666425,13.20567 9.39005865,13.1624079 L14.315323,8.23714353 C14.4010534,8.15141313 14.5149637,8.10431433 14.6361505,8.10431433 C14.757205,8.10431433 14.8712476,8.15141313 14.956978,8.23714353 C15.1337308,8.41402863 15.1337308,8.70191343 14.956978,8.87879853 L9.55411065,14.2815336 C9.46838025,14.3673963 9.35446995,14.4144951 9.23328315,14.4144951 C9.11209635,14.4144951 8.99818605,14.3673963 8.91245565,14.2815336 Z" id="Fill-3"></path>
                </g>
            </g>
        </g>
    </g>
</svg>