<?xml version="1.0" encoding="UTF-8"?>
<svg width="68px" height="69px" viewBox="0 0 68 69" version="1.1" xmlns="http://www.w3.org/2000/svg" xmlns:xlink="http://www.w3.org/1999/xlink">
    <title>Group 11</title>
    <defs>
        <polygon id="path-1" points="16.000002 14.219972 53.16686 14.219972 53.16686 51.3868 16.000002 51.3868"></polygon>
    </defs>
    <g id="Presencial" stroke="none" stroke-width="1" fill="none" fill-rule="evenodd">
        <g id="step-4" transform="translate(-299.000000, -297.000000)">
            <g id="Group-2" transform="translate(48.000000, 297.800000)">
                <g id="Group-11" transform="translate(250.999998, 0.000000)">
                    <circle id="Oval" fill="#38B3B6" opacity="0.2" cx="33.800002" cy="34" r="28.8"></circle>
                    <circle id="Oval-Copy" stroke="#38B3B6" stroke-width="0.6" opacity="0.6" cx="34.000002" cy="34" r="33.7"></circle>
                    <g id="Group-3" transform="translate(16.000002, 14.206800)"></g>
                    <mask id="mask-2" fill="white">
                        <use xlink:href="#path-1"></use>
                    </mask>
                    <g id="Clip-2"></g>
                    <path d="M53.16686,32.803372 C53.16686,22.540072 44.8468,14.219972 34.58344,14.219972 C24.32014,14.219972 16,22.540072 16,32.803372 C16,43.066572 24.32014,51.386812 34.58344,51.386812 C44.8468,51.386812 53.16686,43.066572 53.16686,32.803372" id="Fill-1" fill="#2D82B7" mask="url(#mask-2)"></path>
                    <path d="M49.622348,32.803372 C49.622348,24.497692 42.889208,17.764452 34.583428,17.764452 C26.277648,17.764452 19.544488,24.497692 19.544488,32.803372 C19.544488,41.109072 26.277648,47.842212 34.583428,47.842212 C42.889208,47.842212 49.622348,41.109072 49.622348,32.803372" id="Fill-4" fill="#FFFFFF" mask="url(#mask-2)"></path>
                    <path d="M45.188638,22.16472 C39.315658,16.29174 29.793518,16.29184 23.920458,22.16472 C18.047478,28.03806 18.047478,37.56018 23.920638,43.43326 L45.188638,22.16472 Z" id="Fill-6" fill="#F9F9F9" mask="url(#mask-2)"></path>
                    <path d="M35.841586,32.803372 C35.841586,32.108332 35.278286,31.545032 34.583426,31.545032 C33.888566,31.545032 33.325286,32.108332 33.325286,32.803372 C33.325286,33.498152 33.888566,34.061452 34.583426,34.061452 C35.278286,34.061452 35.841586,33.498152 35.841586,32.803372" id="Fill-8" fill="#C2E7FE" mask="url(#mask-2)"></path>
                    <path d="M35.121508,32.265296 C35.121508,32.562556 34.880588,32.803376 34.583428,32.803376 C34.286268,32.803376 34.045348,32.562556 34.045348,32.265296 L34.045348,22.384396 C34.045348,22.087216 34.286268,21.846396 34.583428,21.846396 C34.880588,21.846396 35.121508,22.087216 35.121508,22.384396 L35.121508,32.265296 Z" id="Fill-10" fill="#C2E7FE" mask="url(#mask-2)"></path>
                    <path d="M34.583062,33.564544 C34.373102,33.354384 34.373102,33.013544 34.583342,32.803364 C34.793482,32.593144 35.133982,32.593144 35.344222,32.803364 L41.608462,39.067604 C41.818422,39.277584 41.818422,39.618344 41.608462,39.828584 C41.398042,40.038564 41.057522,40.038564 40.847282,39.828584 L34.583062,33.564544 Z" id="Fill-12" fill="#C2E7FE" mask="url(#mask-2)"></path>
                </g>
            </g>
        </g>
    </g>
</svg>