<?xml version="1.0" encoding="UTF-8"?>
<svg width="81px" height="81px" viewBox="0 0 81 81" version="1.1" xmlns="http://www.w3.org/2000/svg" xmlns:xlink="http://www.w3.org/1999/xlink">
    <title>Group 10</title>
    <defs>
        <polygon id="path-1" points="0 0.120673942 53.7236869 0.120673942 53.7236869 30.0950711 0 30.0950711"></polygon>
    </defs>
    <g id="Nuevos-cambios" stroke="none" stroke-width="1" fill="none" fill-rule="evenodd">
        <g id="step-1" transform="translate(-66.000000, -254.000000)">
            <g id="Group-10" transform="translate(66.000000, 254.000000)">
                <g id="Group-3">
                    <circle id="Oval" fill="#38B3B6" opacity="0.2" cx="40.2560948" cy="40.4942965" r="34.3010512"></circle>
                    <circle id="Oval-Copy" stroke="#38B3B6" stroke-width="0.59535" opacity="0.6" cx="40.4942965" cy="40.4942965" r="40.1966215"></circle>
                </g>
                <g id="Group-12" transform="translate(13.102941, 23.823529)">
                    <g id="Group-3" transform="translate(0.000000, 0.006886)">
                        <mask id="mask-2" fill="white">
                            <use xlink:href="#path-1"></use>
                        </mask>
                        <g id="Clip-2"></g>
                        <path d="M53.7237761,15.1079363 C48.4034364,24.0618841 38.3661903,30.0950711 26.8618052,30.0950711 C15.3575476,30.0950711 5.32030151,24.0618841 -3.82565598e-05,15.1079363 C5.32030151,6.15398846 15.3575476,0.120673942 26.8618052,0.120673942 C38.3661903,0.120673942 48.4034364,6.15398846 53.7237761,15.1079363" id="Fill-1" fill="#FFD9A8" mask="url(#mask-2)"></path>
                    </g>
                    <path d="M52.6404651,15.1148225 C47.5395905,21.5045606 37.9000851,25.8102089 26.86192,25.8102089 C15.8237548,25.8102089 6.18412188,21.5045606 1.08337476,15.1148225 C6.18412188,8.7249568 15.8237548,4.41943604 26.86192,4.41943604 C37.9000851,4.41943604 47.5395905,8.7249568 52.6404651,15.1148225" id="Fill-4" fill="#FEFEFE"></path>
                    <path d="M26.8618689,4.40572744 C32.7717423,4.40572744 37.5710277,9.20488534 37.5710277,15.1148862 C37.5710277,21.024632 32.7717423,25.8102726 26.8618689,25.8102726 C20.9519956,25.8102726 16.1527102,21.024632 16.1527102,15.1148862 C16.1527102,9.20488534 20.9519956,4.40572744 26.8618689,4.40572744" id="Fill-6" fill="#2D82B7"></path>
                    <path d="M26.8618689,10.7818207 C29.2478031,10.7818207 31.1949344,12.7151797 31.1949344,15.1148862 C31.1949344,17.5006928 29.2478031,19.4478242 26.8618689,19.4478242 C24.4759348,19.4478242 22.5288035,17.5006928 22.5288035,15.1148862 C22.5288035,12.7151797 24.4759348,10.7818207 26.8618689,10.7818207" id="Fill-8" fill="#C2E7FE"></path>
                    <path d="M31.0303675,13.0854267 C32.1546002,13.0854267 33.0597504,13.9904494 33.0597504,15.1148097 C33.0597504,16.2255252 32.1546002,17.1305478 31.0303675,17.1305478 C29.919652,17.1305478 29.0146293,16.2255252 29.0146293,15.1148097 C29.0146293,13.9904494 29.919652,13.0854267 31.0303675,13.0854267" id="Fill-10" fill="#FEFEFE"></path>
                </g>
            </g>
        </g>
    </g>
</svg>