<?xml version="1.0" encoding="UTF-8"?>
<svg width="81px" height="81px" viewBox="0 0 81 81" version="1.1" xmlns="http://www.w3.org/2000/svg" xmlns:xlink="http://www.w3.org/1999/xlink">
    <title>Group 4 Copy</title>
    <defs>
        <polygon id="path-1" points="0.333819639 0.298903712 20.0006905 0.298903712 20.0006905 10.5253259 0.333819639 10.5253259"></polygon>
    </defs>
    <g id="Nuevos-cambios" stroke="none" stroke-width="1" fill="none" fill-rule="evenodd">
        <g id="step-1" transform="translate(-66.000000, -418.000000)">
            <g id="Group-4-Copy" transform="translate(66.000000, 418.000000)">
                <g id="Group-3">
                    <circle id="Oval" fill="#38B3B6" opacity="0.2" cx="39.949736" cy="40.186125" r="34.0400118"></circle>
                    <circle id="Oval-Copy" stroke="#38B3B6" stroke-width="0.59535" opacity="0.6" cx="40.186125" cy="40.186125" r="39.88845"></circle>
                </g>
                <g id="Group-63" transform="translate(21.012353, 13.132721)">
                    <path d="M39.3271675,48.1530081 C39.3271675,50.0697319 37.7742123,51.6226871 35.8574885,51.6226871 L3.47040942,51.6226871 C1.55368572,51.6226871 0.000730458729,50.0697319 0.000730458729,48.1530081 L0.000730458729,8.8265711 C0.000730458729,6.90984739 1.55368572,5.35689213 3.47040942,5.35689213 L35.8574885,5.35689213 C37.7742123,5.35689213 39.3271675,6.90984739 39.3271675,8.8265711 L39.3271675,48.1530081 Z" id="Fill-1" fill="#EEEDED"></path>
                    <path d="M32.8821841,40.7635416 L17.3307177,40.7635416 C17.1407984,40.7635416 16.9859412,40.9183988 16.9859412,41.109779 C16.9859412,41.2996983 17.1407984,41.4545555 17.3307177,41.4545555 L32.8821841,41.4545555 C33.0735642,41.4545555 33.2284215,41.2996983 33.2284215,41.109779 C33.2284215,40.9183988 33.0735642,40.7635416 32.8821841,40.7635416" id="Fill-3" fill="#C2E7FE"></path>
                    <path d="M32.8821841,39.6457936 L17.3307177,39.6457936 C17.1407984,39.6457936 16.9859412,39.8006509 16.9859412,39.992031 C16.9859412,40.1819503 17.1407984,40.3368076 17.3307177,40.3368076 L32.8821841,40.3368076 C33.0735642,40.3368076 33.2284215,40.1819503 33.2284215,39.992031 C33.2284215,39.8006509 33.0735642,39.6457936 32.8821841,39.6457936" id="Fill-5" fill="#C2E7FE"></path>
                    <path d="M13.0056716,43.3950922 C13.0056716,43.8947259 12.5995365,44.300861 12.0999028,44.300861 L7.52869203,44.300861 C7.02905826,44.300861 6.6229232,43.8947259 6.6229232,43.3950922 L6.6229232,38.8238814 C6.6229232,38.3242477 7.02905826,37.9181126 7.52869203,37.9181126 L12.0999028,37.9181126 C12.5995365,37.9181126 13.0056716,38.3242477 13.0056716,38.8238814 L13.0056716,43.3950922 Z M12.0999028,37.0547104 L7.52869203,37.0547104 C6.55133825,37.0547104 5.75952099,37.8465277 5.75952099,38.8238814 L5.75952099,43.3950922 C5.75952099,44.372446 6.55133825,45.1642632 7.52869203,45.1642632 L12.0999028,45.1642632 C13.0772565,45.1642632 13.8690738,44.372446 13.8690738,43.3950922 L13.8690738,38.8238814 C13.8690738,37.8465277 13.0772565,37.0547104 12.0999028,37.0547104 L12.0999028,37.0547104 Z" id="Fill-7" fill="#F8C271"></path>
                    <path d="M32.8821841,31.8539903 L17.3307177,31.8539903 C17.1407984,31.8539903 16.9859412,32.0088476 16.9859412,32.1987669 C16.9859412,32.3901471 17.1407984,32.5450043 17.3307177,32.5450043 L32.8821841,32.5450043 C33.0735642,32.5450043 33.2284215,32.3901471 33.2284215,32.1987669 C33.2284215,32.0088476 33.0735642,31.8539903 32.8821841,31.8539903" id="Fill-9" fill="#C2E7FE"></path>
                    <path d="M13.0056716,33.3669165 C13.0056716,33.8665502 12.5995365,34.2726853 12.0999028,34.2726853 L7.52869203,34.2726853 C7.02905826,34.2726853 6.6229232,33.8665502 6.6229232,33.3669165 L6.6229232,28.7957057 C6.6229232,28.296072 7.02905826,27.8899369 7.52869203,27.8899369 L12.0999028,27.8899369 C12.5995365,27.8899369 13.0056716,28.296072 13.0056716,28.7957057 L13.0056716,33.3669165 Z M12.0999028,27.0265347 L7.52869203,27.0265347 C6.55133825,27.0265347 5.75952099,27.818352 5.75952099,28.7957057 L5.75952099,33.3669165 C5.75952099,34.3442702 6.55133825,35.1360875 7.52869203,35.1360875 L12.0999028,35.1360875 C13.0772565,35.1360875 13.8690738,34.3442702 13.8690738,33.3669165 L13.8690738,28.7957057 C13.8690738,27.818352 13.0772565,27.0265347 12.0999028,27.0265347 L12.0999028,27.0265347 Z" id="Fill-11" fill="#F8C271"></path>
                    <path d="M32.8821841,41.8814356 L17.3307177,41.8814356 C17.1407984,41.8814356 16.9859412,42.0362928 16.9859412,42.2262121 C16.9859412,42.4175923 17.1407984,42.5724496 17.3307177,42.5724496 L32.8821841,42.5724496 C33.0735642,42.5724496 33.2284215,42.4175923 33.2284215,42.2262121 C33.2284215,42.0362928 33.0735642,41.8814356 32.8821841,41.8814356" id="Fill-13" fill="#C2E7FE"></path>
                    <path d="M32.8821841,30.7362424 L17.3307177,30.7362424 C17.1407984,30.7362424 16.9859412,30.8910996 16.9859412,31.0810189 C16.9859412,31.2723991 17.1407984,31.4272564 17.3307177,31.4272564 L32.8821841,31.4272564 C33.0735642,31.4272564 33.2284215,31.2723991 33.2284215,31.0810189 C33.2284215,30.8910996 33.0735642,30.7362424 32.8821841,30.7362424" id="Fill-15" fill="#C2E7FE"></path>
                    <path d="M32.8821841,20.7087972 L17.3307177,20.7087972 C17.1407984,20.7087972 16.9859412,20.8621935 16.9859412,21.0535737 C16.9859412,21.2449539 17.1407984,21.3998111 17.3307177,21.3998111 L32.8821841,21.3998111 C33.0735642,21.3998111 33.2284215,21.2449539 33.2284215,21.0535737 C33.2284215,20.8621935 33.0735642,20.7087972 32.8821841,20.7087972" id="Fill-17" fill="#C2E7FE"></path>
                    <path d="M32.8821841,19.5910492 L17.3307177,19.5910492 C17.1407984,19.5910492 16.9859412,19.7459065 16.9859412,19.9358257 C16.9859412,20.1272059 17.1407984,20.2820632 17.3307177,20.2820632 L32.8821841,20.2820632 C33.0735642,20.2820632 33.2284215,20.1272059 33.2284215,19.9358257 C33.2284215,19.7459065 33.0735642,19.5910492 32.8821841,19.5910492" id="Fill-19" fill="#C2E7FE"></path>
                    <path d="M32.8821841,29.6183484 L17.3307177,29.6183484 C17.1407984,29.6183484 16.9859412,29.7732056 16.9859412,29.9631249 C16.9859412,30.1545051 17.1407984,30.3093623 17.3307177,30.3093623 L32.8821841,30.3093623 C33.0735642,30.3093623 33.2284215,30.1545051 33.2284215,29.9631249 C33.2284215,29.7732056 33.0735642,29.6183484 32.8821841,29.6183484" id="Fill-21" fill="#C2E7FE"></path>
                    <path d="M32.8821841,21.8258146 L17.3307177,21.8258146 C17.1407984,21.8258146 16.9859412,21.9806719 16.9859412,22.1720521 C16.9859412,22.3634323 17.1407984,22.5168286 17.3307177,22.5168286 L32.8821841,22.5168286 C33.0735642,22.5168286 33.2284215,22.3634323 33.2284215,22.1720521 C33.2284215,21.9806719 33.0735642,21.8258146 32.8821841,21.8258146" id="Fill-23" fill="#C2E7FE"></path>
                    <path d="M32.8821841,20.2822093 L17.3307177,20.2822093 C17.1407984,20.2822093 16.9859412,20.127352 16.9859412,19.9359718 C16.9859412,19.7460525 17.1407984,19.5911953 17.3307177,19.5911953 L32.8821841,19.5911953 C33.0735642,19.5911953 33.2284215,19.7460525 33.2284215,19.9359718 C33.2284215,20.127352 33.0735642,20.2822093 32.8821841,20.2822093 L32.8821841,20.2822093 Z M32.8821841,21.3998111 L17.3307177,21.3998111 C17.1407984,21.3998111 16.9859412,21.2449539 16.9859412,21.0535737 C16.9859412,20.8621935 17.1407984,20.7087972 17.3307177,20.7087972 L32.8821841,20.7087972 C33.0735642,20.7087972 33.2284215,20.8621935 33.2284215,21.0535737 C33.2284215,21.2449539 33.0735642,21.3998111 32.8821841,21.3998111 L32.8821841,21.3998111 Z M32.8821841,22.517413 L17.3307177,22.517413 C17.1407984,22.517413 16.9859412,22.3625557 16.9859412,22.1711755 C16.9859412,21.9812563 17.1407984,21.826399 17.3307177,21.826399 L32.8821841,21.826399 C33.0735642,21.826399 33.2284215,21.9812563 33.2284215,22.1711755 C33.2284215,22.3625557 33.0735642,22.517413 32.8821841,22.517413 L32.8821841,22.517413 Z M32.8821841,30.3099467 L17.3307177,30.3099467 C17.1407984,30.3099467 16.9859412,30.1550894 16.9859412,29.9637092 C16.9859412,29.77379 17.1407984,29.6189327 17.3307177,29.6189327 L32.8821841,29.6189327 C33.0735642,29.6189327 33.2284215,29.77379 33.2284215,29.9637092 C33.2284215,30.1550894 33.0735642,30.3099467 32.8821841,30.3099467 L32.8821841,30.3099467 Z M32.8821841,31.4275485 L17.3307177,31.4275485 C17.1407984,31.4275485 16.9859412,31.2726913 16.9859412,31.0813111 C16.9859412,30.8913918 17.1407984,30.7365346 17.3307177,30.7365346 L32.8821841,30.7365346 C33.0735642,30.7365346 33.2284215,30.8913918 33.2284215,31.0813111 C33.2284215,31.2726913 33.0735642,31.4275485 32.8821841,31.4275485 L32.8821841,31.4275485 Z M32.8821841,32.5451504 L17.3307177,32.5451504 C17.1407984,32.5451504 16.9859412,32.3902931 16.9859412,32.198913 C16.9859412,32.0089937 17.1407984,31.8541364 17.3307177,31.8541364 L32.8821841,31.8541364 C33.0735642,31.8541364 33.2284215,32.0089937 33.2284215,32.198913 C33.2284215,32.3902931 33.0735642,32.5451504 32.8821841,32.5451504 L32.8821841,32.5451504 Z M32.8821841,40.3376841 L17.3307177,40.3376841 C17.1407984,40.3376841 16.9859412,40.1828269 16.9859412,39.9914467 C16.9859412,39.8000665 17.1407984,39.6452092 17.3307177,39.6452092 L32.8821841,39.6452092 C33.0735642,39.6452092 33.2284215,39.8000665 33.2284215,39.9914467 C33.2284215,40.1828269 33.0735642,40.3376841 32.8821841,40.3376841 L32.8821841,40.3376841 Z M32.8821841,41.455286 L17.3307177,41.455286 C17.1407984,41.455286 16.9859412,41.3004287 16.9859412,41.1090485 C16.9859412,40.9176683 17.1407984,40.764272 17.3307177,40.764272 L32.8821841,40.764272 C33.0735642,40.764272 33.2284215,40.9176683 33.2284215,41.1090485 C33.2284215,41.3004287 33.0735642,41.455286 32.8821841,41.455286 L32.8821841,41.455286 Z M32.8821841,42.5728878 L17.3307177,42.5728878 C17.1407984,42.5728878 16.9859412,42.4180306 16.9859412,42.2266504 C16.9859412,42.0367311 17.1407984,41.8818739 17.3307177,41.8818739 L32.8821841,41.8818739 C33.0735642,41.8818739 33.2284215,42.0367311 33.2284215,42.2266504 C33.2284215,42.4180306 33.0735642,42.5728878 32.8821841,42.5728878 L32.8821841,42.5728878 Z M16.3489812,15.4275805 L10.9596567,21.9549597 C10.6893869,22.2822053 10.2964002,22.4677418 9.87419501,22.4677418 C9.85520308,22.4677418 9.83621115,22.4662809 9.81721923,22.4662809 C9.37310032,22.4472889 8.97280894,22.2296122 8.71714838,21.8643829 L7.57471093,20.233999 C7.41108817,19.9987913 7.46806395,19.6759285 7.70327166,19.5123058 C7.93701846,19.3472221 8.25988122,19.4041979 8.42496489,19.6394056 L9.56740234,21.2712504 C9.63460454,21.3676709 9.74125152,21.4246467 9.85812491,21.4304904 C9.97499831,21.436334 10.086028,21.3852019 10.1605348,21.2946251 L15.5483984,14.7687068 C15.7310131,14.5466473 16.0567977,14.515968 16.2788571,14.6985827 C16.4994557,14.8811974 16.5301349,15.206982 16.3489812,15.4275805 L16.3489812,15.4275805 Z M13.8698043,23.3399095 C13.8698043,24.3172633 13.0765261,25.1090805 12.0991723,25.1090805 L7.52942249,25.1090805 C6.55206871,25.1090805 5.75879053,24.3172633 5.75879053,23.3399095 L5.75879053,18.7686988 C5.75879053,17.791345 6.55206871,16.9980668 7.52942249,16.9980668 L12.0991723,16.9980668 C12.4439488,16.9980668 12.7638897,17.0988701 13.0370813,17.2683365 L12.476089,17.9462022 C12.3606765,17.8936092 12.2350376,17.8629299 12.0991723,17.8629299 L7.52942249,17.8629299 C7.02978872,17.8629299 6.62219275,18.269065 6.62219275,18.7686988 L6.62219275,23.3399095 C6.62219275,23.8395433 7.02978872,24.2456783 7.52942249,24.2456783 L12.0991723,24.2456783 C12.5988061,24.2456783 13.006402,23.8395433 13.006402,23.3399095 L13.006402,20.0192441 L13.8698043,18.9732272 L13.8698043,23.3399095 Z M13.8698043,33.3676469 C13.8698043,34.3450007 13.0765261,35.136818 12.0991723,35.136818 L7.52942249,35.136818 C6.55206871,35.136818 5.75879053,34.3450007 5.75879053,33.3676469 L5.75879053,28.7964362 C5.75879053,27.8190824 6.55206871,27.0258042 7.52942249,27.0258042 L12.0991723,27.0258042 C13.0765261,27.0258042 13.8698043,27.8190824 13.8698043,28.7964362 L13.8698043,33.3676469 Z M13.8698043,43.3953844 C13.8698043,44.3727381 13.0765261,45.1645554 12.0991723,45.1645554 L7.52942249,45.1645554 C6.55206871,45.1645554 5.75879053,44.3727381 5.75879053,43.3953844 L5.75879053,38.8227127 C5.75879053,37.8453589 6.55206871,37.0535417 7.52942249,37.0535417 L12.0991723,37.0535417 C13.0765261,37.0535417 13.8698043,37.8453589 13.8698043,38.8227127 L13.8698043,43.3953844 Z M4.15470316,7.92723031 C3.32051929,7.92723031 2.64265359,8.60363509 2.64265359,9.43927988 L2.64265359,47.5400072 C2.64265359,48.375652 3.32051929,49.0520568 4.15470316,49.0520568 L35.1714417,49.0520568 C36.0070865,49.0520568 36.6849522,48.375652 36.6849522,47.5400072 L36.6849522,9.43927988 C36.6849522,8.60363509 36.0070865,7.92723031 35.1714417,7.92723031 L4.15470316,7.92723031 Z" id="Fill-25" fill="#FFFFFF"></path>
                    <path d="M12.0997567,37.9181126 L7.52854594,37.9181126 C7.02891217,37.9181126 6.62277711,38.3242477 6.62277711,38.8238814 L6.62277711,43.3950922 C6.62277711,43.8947259 7.02891217,44.300861 7.52854594,44.300861 L12.0997567,44.300861 C12.5993904,44.300861 13.0055255,43.8947259 13.0055255,43.3950922 L13.0055255,38.8238814 C13.0055255,38.3242477 12.5993904,37.9181126 12.0997567,37.9181126" id="Fill-27" fill="#FFFFFF"></path>
                    <path d="M12.0997567,27.8899369 L7.52854594,27.8899369 C7.02891217,27.8899369 6.62277711,28.296072 6.62277711,28.7957057 L6.62277711,33.3669165 C6.62277711,33.8665502 7.02891217,34.2726853 7.52854594,34.2726853 L12.0997567,34.2726853 C12.5993904,34.2726853 13.0055255,33.8665502 13.0055255,33.3669165 L13.0055255,28.7957057 C13.0055255,28.296072 12.5993904,27.8899369 12.0997567,27.8899369" id="Fill-29" fill="#FFFFFF"></path>
                    <path d="M13.0056716,23.3396173 C13.0056716,23.6347226 12.8625017,23.893305 12.644825,24.0583887 C12.4914286,24.1738012 12.3058921,24.2453861 12.0999028,24.2453861 L7.52869203,24.2453861 C7.02905826,24.2453861 6.6229232,23.8392511 6.6229232,23.3396173 L6.6229232,18.7684066 C6.6229232,18.7012044 6.63022779,18.636924 6.64483697,18.5741046 C6.64483697,18.5711827 6.64629788,18.5697218 6.6477588,18.5668 C6.66236798,18.5054414 6.6813599,18.4470047 6.7061955,18.3914899 C6.85082633,18.0803145 7.16346266,17.8626378 7.52869203,17.8626378 L12.0999028,17.8626378 C12.167105,17.8626378 12.2313853,17.8699423 12.2942048,17.8845515 C12.2971266,17.8860124 12.2985875,17.8874734 12.3015094,17.8874734 C12.361407,17.9020825 12.4213046,17.9210745 12.4753585,17.947371 C12.7879949,18.0905409 13.0056716,18.4031772 13.0056716,18.7684066 L13.0056716,23.3396173 Z M13.8690738,18.972935 L13.8690738,18.7684066 C13.8690738,18.1343684 13.5345237,17.5836025 13.0348899,17.2709662 L13.0363508,17.2680444 C12.9647659,17.2242168 12.8887982,17.1847721 12.8113696,17.151171 C12.7836121,17.1380227 12.7529329,17.1292572 12.7237145,17.1175699 C12.6535905,17.0912733 12.5834664,17.0693596 12.5104206,17.0518286 C12.4782804,17.0430631 12.4476011,17.0372194 12.414,17.0313757 C12.3117358,17.0109229 12.2080106,16.9992355 12.1013637,16.9992355 L12.0999028,16.9992355 L7.73322047,16.9992355 L7.52869203,16.9992355 C6.89465385,16.9992355 6.34388797,17.3337856 6.03125163,17.8334194 L6.0283298,17.8319585 C5.98450227,17.9035434 5.9450575,17.9795112 5.9114564,18.0554789 C5.89830814,18.0846972 5.88808172,18.1153765 5.8778553,18.1460557 C5.85155879,18.2147189 5.82964502,18.2848429 5.81211401,18.3578888 C5.80334851,18.390029 5.79604392,18.4207082 5.79166117,18.4543093 C5.77120833,18.5565736 5.75952099,18.6588378 5.75952099,18.7669457 L5.75952099,18.7684066 L5.75952099,23.3396173 C5.75952099,23.663941 5.8530197,23.9619681 6.0034942,24.2234724 C6.08092283,24.3564159 6.16857787,24.4835157 6.27814668,24.5901627 C6.35703623,24.671974 6.44469127,24.743559 6.53965091,24.8063784 C6.82160798,24.9977586 7.16200175,25.1087884 7.52869203,25.1087884 L12.0999028,25.1087884 C12.3993908,25.1087884 12.6784261,25.026977 12.9253211,24.8954944 C13.4848525,24.5974672 13.8690738,24.0160221 13.8690738,23.3396173 L13.8690738,18.972935 Z" id="Fill-31" fill="#F8C271"></path>
                    <path d="M15.5486906,14.7681224 L10.160827,21.2940407 C10.0863202,21.3846176 9.97529049,21.4357497 9.85695618,21.429906 C9.74008278,21.4255233 9.63489673,21.3670866 9.56623361,21.270666 L8.42525707,19.6388212 C8.2601734,19.4036135 7.93731064,19.3466377 7.70210293,19.5117214 C7.46835614,19.6753441 7.41138036,19.9996678 7.57500311,20.2334146 L8.71744056,21.8652594 C8.97310112,22.2290279 9.37193158,22.4481655 9.81751141,22.4656965 C9.83650334,22.4671574 9.85549526,22.4671574 9.87448719,22.4671574 C10.2966923,22.4671574 10.6896791,22.2816209 10.9599489,21.9543754 L16.3478124,15.4284571 C16.5304271,15.2078586 16.4997479,14.880613 16.2791493,14.6979984 C16.0570899,14.5168446 15.7313053,14.5475239 15.5486906,14.7681224" id="Fill-33" fill="#FF9900"></path>
                    <g id="Group-37" transform="translate(9.495963, 0.126077)">
                        <mask id="mask-2" fill="white">
                            <use xlink:href="#path-1"></use>
                        </mask>
                        <g id="Clip-36"></g>
                        <path d="M10.167255,4.35002782 C9.59165357,4.35002782 9.12708182,3.88399515 9.12708182,3.30839368 C9.12708182,2.73425311 9.59165357,2.26675953 10.167255,2.26675953 C10.7428565,2.26675953 11.2088892,2.73425311 11.2088892,3.30839368 C11.2088892,3.88399515 10.7428565,4.35002782 10.167255,4.35002782 M15.087625,3.96872837 L14.7223957,3.96872837 C14.3659318,3.96872837 14.0752092,3.68092763 14.0752092,3.32300285 L14.0752092,3.30108909 C14.0752092,2.41723403 13.3593597,1.69992355 12.4755046,1.69992355 L7.85900547,1.69992355 C6.9751504,1.69992355 6.25930085,2.41723403 6.25930085,3.30108909 L6.25930085,3.32300285 C6.25930085,3.68092763 5.97003919,3.96872837 5.61357533,3.96872837 L5.24834597,3.96872837 C2.53396133,3.96872837 0.333819639,6.17033098 0.333819639,8.8832547 L0.333819639,8.94899598 C0.333819639,9.81970279 1.03944277,10.5253259 1.91014958,10.5253259 L18.4243605,10.5253259 C19.2950673,10.5253259 20.0006905,9.81970279 20.0006905,8.94899598 L20.0006905,8.8832547 C20.0006905,6.17033098 17.8005488,3.96872837 15.087625,3.96872837" id="Fill-35" fill="#2D82B7" mask="url(#mask-2)"></path>
                    </g>
                </g>
            </g>
        </g>
    </g>
</svg>